<svg xmlns="http://www.w3.org/2000/svg" width="233" height="88" viewBox="0 0 233 88" fill="none">
  <path d="M229.884 27.1147C231.196 27.1147 232.269 26.3304 232.269 25.3651C232.269 24.3997 231.196 23.6154 229.884 23.6154C228.568 23.6154 227.499 24.3997 227.499 25.3651C227.499 26.3304 228.568 27.1147 229.884 27.1147ZM226.854 25.9032H169.446L155.985 35.7787H138.991L121.432 22.8962H69.0398L42.9737 3.77269C41.9243 4.20951 40.5657 4.10091 39.671 3.44447C38.5986 2.65772 38.5986 1.37863 39.671 0.591878C40.7467 -0.197293 42.4868 -0.197293 43.5625 0.591878C44.4572 1.24831 44.602 2.24262 44.0066 3.01248L69.6451 21.8222H122.04L139.597 34.7048H155.38L168.84 24.8293H226.854C227.187 23.8253 228.417 23.0796 229.884 23.0796C231.601 23.0796 232.999 24.1053 232.999 25.3651C232.999 26.6248 231.601 27.6505 229.884 27.6505C228.417 27.6505 227.187 26.9048 226.854 25.9032Z" fill="#E84839"/>
  <path d="M27.3982 86.9522C28.3291 86.2693 28.3291 85.1591 27.3982 84.4785C26.4673 83.7956 24.9574 83.7956 24.0265 84.4785C23.0955 85.1591 23.0955 86.2693 24.0265 86.9522C24.9574 87.6352 26.4673 87.6352 27.3982 86.9522ZM27.3357 83.7666L48.9774 67.8867H99.3597L127.291 47.3972H165.591L178.209 38.1395H212.68C212.999 37.2852 214.065 36.6602 215.328 36.6602C216.848 36.6602 218.078 37.5628 218.078 38.6777C218.078 39.7903 216.848 40.6953 215.328 40.6953C214.065 40.6953 212.999 40.0678 212.68 39.2135H178.815L166.196 48.4712H127.896L99.9649 68.9606H49.5827L28.3686 84.5244C29.1022 85.4053 28.9542 86.5709 27.9147 87.3311C26.7008 88.2241 24.7238 88.2241 23.51 87.3311C22.2929 86.4406 22.2929 84.9902 23.51 84.0997C24.5462 83.337 26.135 83.2284 27.3357 83.7666Z" fill="#E84839"/>
  <path d="M202.481 46.6707C202.481 47.6336 203.55 48.4204 204.866 48.4204C206.181 48.4204 207.251 47.6336 207.251 46.6707C207.251 45.7053 206.181 44.9186 204.866 44.9186C203.55 44.9186 202.481 45.7053 202.481 46.6707ZM135.023 57.4753C136.289 57.4753 137.352 58.1028 137.674 58.9571H171.691L189.168 46.1325H201.839C202.172 45.131 203.399 44.3828 204.866 44.3828C206.583 44.3828 207.981 45.4085 207.981 46.6707C207.981 47.9305 206.583 48.9561 204.866 48.9561C203.399 48.9561 202.172 48.208 201.839 47.2064H189.777L172.296 60.0311H137.674C137.352 60.883 136.289 61.5105 135.023 61.5105C133.506 61.5105 132.273 60.6079 132.273 59.4929C132.273 58.3779 133.506 57.4753 135.023 57.4753Z" fill="#E84839"/>
  <path d="M3.11517 48.4203C4.43098 48.4203 5.50007 47.6336 5.50007 46.6707C5.50007 45.7053 4.43098 44.9185 3.11517 44.9185C1.80265 44.9185 0.733562 45.7053 0.733562 46.6707C0.733562 47.6336 1.80265 48.4203 3.11517 48.4203ZM0 46.6707C0 45.4085 1.39804 44.3828 3.11517 44.3828C4.58229 44.3828 5.81257 45.1309 6.14481 46.1325H32.6254L52.3 31.6981H113.166C113.485 30.8462 114.548 30.2188 115.814 30.2188C117.334 30.2188 118.564 31.1213 118.564 32.2363C118.564 33.3513 117.334 34.2539 115.814 34.2539C114.548 34.2539 113.485 33.6264 113.166 32.7721H52.9053L33.2307 47.2064H6.14481C5.81257 48.208 4.58229 48.9561 3.11517 48.9561C1.39804 48.9561 0 47.9304 0 46.6707Z" fill="#E84839"/>
  <path d="M103.359 41.8968C103.359 42.8621 104.428 43.6465 105.744 43.6465C107.06 43.6465 108.129 42.8621 108.129 41.8968C108.129 40.9314 107.06 40.1471 105.744 40.1471C104.428 40.1471 103.359 40.9314 103.359 41.8968ZM53.2991 52.9065L69.0394 41.361H102.717C103.05 40.3571 104.277 39.6113 105.744 39.6113C107.461 39.6113 108.859 40.637 108.859 41.8968C108.859 43.1566 107.461 44.1822 105.744 44.1822C104.277 44.1822 103.05 43.4365 102.717 42.4326H69.6447L56.832 51.835H82.6218L89.6482 56.9875C90.6976 56.5507 92.0529 56.6593 92.9476 57.3134C94.0233 58.1025 94.0233 59.3816 92.9476 60.1684C91.8752 60.9575 90.1318 60.9575 89.0594 60.1684C88.1646 59.5119 88.0166 58.5152 88.612 57.7453L82.0165 52.9065H53.2991Z" fill="#E84839"/>
  <path d="M45.3452 22.4824C45.3452 23.4478 46.4142 24.2321 47.7301 24.2321C49.0459 24.2321 50.115 23.4478 50.115 22.4824C50.115 21.5171 49.0459 20.7328 47.7301 20.7328C46.4142 20.7328 45.3452 21.5171 45.3452 22.4824ZM44.7037 21.9443C45.0359 20.9427 46.2629 20.1946 47.7301 20.1946C49.4472 20.1946 50.8452 21.2203 50.8452 22.4824C50.8452 23.7422 49.4472 24.7679 47.7301 24.7679C46.2629 24.7679 45.0359 24.0198 44.7037 23.0182H34.3023L22.7626 14.5521C21.7133 14.9914 20.358 14.8828 19.4632 14.2263C18.3876 13.4372 18.3876 12.1605 19.4632 11.3713C20.5356 10.5846 22.2791 10.5846 23.3515 11.3713C24.2462 12.0302 24.3942 13.0245 23.7988 13.7943L34.9075 21.9443H44.7037Z" fill="#E84839"/>
  <path d="M62.0209 60.1683C62.0209 61.1336 63.09 61.918 64.4058 61.918C65.7216 61.918 66.7907 61.1336 66.7907 60.1683C66.7907 59.2029 65.7216 58.4186 64.4058 58.4186C63.09 58.4186 62.0209 59.2029 62.0209 60.1683ZM13.6519 65.7142C14.9184 65.7142 15.9809 66.3417 16.3 67.1936H31.4547L41.7608 59.6325H61.3795C61.7117 58.6285 62.942 57.8828 64.4058 57.8828C66.1262 57.8828 67.5243 58.9085 67.5243 60.1683C67.5243 61.428 66.1262 62.4561 64.4058 62.4561C62.942 62.4561 61.7117 61.708 61.3795 60.704H42.3694L32.06 68.2675H16.3C15.9809 69.1218 14.9184 69.7493 13.6519 69.7493C12.1321 69.7493 10.9019 68.8467 10.9019 67.7318C10.9019 66.6168 12.1321 65.7142 13.6519 65.7142Z" fill="#E84839"/>
</svg>