<svg xmlns="http://www.w3.org/2000/svg" width="26" height="31" viewBox="0 0 26 31" fill="none">
<path d="M0 28.0506C0 29.6526 1.24777 30.9524 2.78571 30.9524H23.2143C24.7522 30.9524 26 29.6526 26 28.0506V11.6071H0V28.0506ZM18.5714 16.2016C18.5714 15.8026 18.8848 15.4762 19.2679 15.4762H21.5893C21.9723 15.4762 22.2857 15.8026 22.2857 16.2016V18.6198C22.2857 19.0188 21.9723 19.3452 21.5893 19.3452H19.2679C18.8848 19.3452 18.5714 19.0188 18.5714 18.6198V16.2016ZM18.5714 23.9397C18.5714 23.5407 18.8848 23.2143 19.2679 23.2143H21.5893C21.9723 23.2143 22.2857 23.5407 22.2857 23.9397V26.3579C22.2857 26.7569 21.9723 27.0833 21.5893 27.0833H19.2679C18.8848 27.0833 18.5714 26.7569 18.5714 26.3579V23.9397ZM11.1429 16.2016C11.1429 15.8026 11.4562 15.4762 11.8393 15.4762H14.1607C14.5437 15.4762 14.8571 15.8026 14.8571 16.2016V18.6198C14.8571 19.0188 14.5437 19.3452 14.1607 19.3452H11.8393C11.4562 19.3452 11.1429 19.0188 11.1429 18.6198V16.2016ZM11.1429 23.9397C11.1429 23.5407 11.4562 23.2143 11.8393 23.2143H14.1607C14.5437 23.2143 14.8571 23.5407 14.8571 23.9397V26.3579C14.8571 26.7569 14.5437 27.0833 14.1607 27.0833H11.8393C11.4562 27.0833 11.1429 26.7569 11.1429 26.3579V23.9397ZM3.71429 16.2016C3.71429 15.8026 4.02768 15.4762 4.41071 15.4762H6.73214C7.11518 15.4762 7.42857 15.8026 7.42857 16.2016V18.6198C7.42857 19.0188 7.11518 19.3452 6.73214 19.3452H4.41071C4.02768 19.3452 3.71429 19.0188 3.71429 18.6198V16.2016ZM3.71429 23.9397C3.71429 23.5407 4.02768 23.2143 4.41071 23.2143H6.73214C7.11518 23.2143 7.42857 23.5407 7.42857 23.9397V26.3579C7.42857 26.7569 7.11518 27.0833 6.73214 27.0833H4.41071C4.02768 27.0833 3.71429 26.7569 3.71429 26.3579V23.9397ZM23.2143 3.86905H20.4286V0.967262C20.4286 0.435268 20.0107 0 19.5 0H17.6429C17.1321 0 16.7143 0.435268 16.7143 0.967262V3.86905H9.28571V0.967262C9.28571 0.435268 8.86786 0 8.35714 0H6.5C5.98929 0 5.57143 0.435268 5.57143 0.967262V3.86905H2.78571C1.24777 3.86905 0 5.16881 0 6.77083V9.67262H26V6.77083C26 5.16881 24.7522 3.86905 23.2143 3.86905Z" fill="#1F5E82"/>
</svg>