<svg xmlns="http://www.w3.org/2000/svg" width="18" height="26" viewBox="0 0 18 26" fill="none">
<path opacity="0.72" d="M17.325 4.12807C17.6978 4.12807 18 3.82824 18 3.45843V1.22628C18 0.856473 17.6978 0.556641 17.325 0.556641H0.675C0.302231 0.556641 0 0.856473 0 1.22628V3.72338C0 4.09319 0.302231 4.39302 0.675 4.39302H5.472C7.00807 4.39302 8.18668 4.94872 8.90156 5.91378H0.675C0.302231 5.91378 0 6.21362 0 6.58343V8.81557C0 9.18538 0.302231 9.48521 0.675 9.48521H9.60508C9.25537 11.4989 7.75102 12.7571 5.4 12.7571H0.675C0.302231 12.7571 0 13.0569 0 13.4267V16.385C0 16.5719 0.07875 16.7503 0.217181 16.8771L9.50136 25.3791C9.62604 25.4932 9.7895 25.5566 9.95918 25.5566H14.6033C15.2178 25.5566 15.5126 24.8084 15.0611 24.3949L6.57399 16.6228C10.8771 16.4922 13.9508 13.6432 14.3544 9.48521H17.325C17.6978 9.48521 18 9.18538 18 8.81557V6.58343C18 6.21362 17.6978 5.91378 17.325 5.91378H14.0237C13.8276 5.26975 13.5579 4.67238 13.222 4.12807H17.325Z" fill="black"/>
</svg>