<svg xmlns="http://www.w3.org/2000/svg" width="42" height="43" viewBox="0 0 42 43" fill="none">
<path d="M8.53126 18.9043H1.96875C0.881426 18.9043 0 19.7857 0 20.873V40.5605C0 41.6479 0.881426 42.5293 1.96875 42.5293H8.53126C9.61858 42.5293 10.5 41.6479 10.5 40.5605V20.873C10.5 19.7857 9.61858 18.9043 8.53126 18.9043ZM5.25 39.248C4.16268 39.248 3.28125 38.3666 3.28125 37.2793C3.28125 36.192 4.16268 35.3105 5.25 35.3105C6.33733 35.3105 7.21875 36.192 7.21875 37.2793C7.21875 38.3666 6.33733 39.248 5.25 39.248ZM31.5 7.21091C31.5 10.6903 29.3697 12.642 28.7703 14.9668H37.1147C39.8543 14.9668 41.9871 17.2428 41.9999 19.7326C42.0068 21.2041 41.3809 22.7882 40.4053 23.7683L40.3963 23.7774C41.2032 25.6917 41.072 28.3741 39.6328 30.2963C40.3449 32.4205 39.6271 35.0298 38.2889 36.4287C38.6415 37.8723 38.473 39.1009 37.7846 40.0899C36.1103 42.4954 31.9607 42.5293 28.4517 42.5293L28.2183 42.5292C24.2572 42.5278 21.0154 41.0856 18.4106 39.9268C17.1016 39.3444 15.3901 38.6235 14.0916 38.5997C13.5551 38.5898 13.125 38.152 13.125 37.6155V20.0796C13.125 19.8171 13.2302 19.5652 13.4169 19.3807C16.6665 16.1696 18.0638 12.77 20.7273 10.102C21.9417 8.88533 22.3833 7.0475 22.8103 5.27021C23.1751 3.75255 23.9381 0.529297 25.5938 0.529297C27.5625 0.529297 31.5 1.18555 31.5 7.21091Z" fill="#3FA536"/>
</svg>