<svg xmlns="http://www.w3.org/2000/svg" width="11" height="11" viewBox="0 0 11 11" fill="none">
<path d="M5.08061 0.00936223C3.75203 0.112347 2.57262 0.645995 1.62164 1.56349C0.810506 2.34992 0.279074 3.31423 0.0413282 4.43302C-0.0006269 4.64367 -0.00528855 4.69516 0.00403482 5.62671L0.0133582 6.60038L0.0786217 6.86252C0.348999 7.90641 0.889754 8.84731 1.61232 9.5448C2.31623 10.2282 3.21127 10.7244 4.14827 10.9585C4.32075 11.0006 4.37669 11.0053 5.52347 10.9959L6.71686 10.9913L6.9546 10.9211C7.7098 10.6917 8.36709 10.35 8.94514 9.88184C9.39266 9.51672 9.8868 8.9503 10.1945 8.44942C10.9776 7.16679 11.2014 5.61266 10.8145 4.12875C10.628 3.41254 10.2411 2.65419 9.75627 2.05501C8.85191 0.936224 7.48604 0.182564 6.07355 0.037449C5.76587 1.39508e-08 5.337 -0.00936224 5.08061 0.00936223ZM5.92903 0.725573C8.00348 0.936224 9.72364 2.45291 10.1805 4.48451C10.4742 5.78118 10.2178 7.16211 9.48123 8.25281C9.27146 8.56645 9.09898 8.76774 8.80995 9.05328C8.07341 9.76481 7.18303 10.2048 6.14347 10.364C5.80317 10.4202 5.14587 10.4202 4.80091 10.364C3.95714 10.2329 3.21593 9.92397 2.5633 9.43246C0.721934 8.04216 0.115915 5.52372 1.11352 3.44998C1.40254 2.84612 1.85472 2.27034 2.37683 1.83032C3.36045 1.00644 4.67038 0.599183 5.92903 0.725573Z" fill="#005473"/>
<path d="M4.84269 1.36672C2.77291 1.68036 1.24854 3.46387 1.24854 5.56101C1.24854 7.17599 2.17621 8.65991 3.61667 9.35739C5.54661 10.2936 7.83083 9.65231 9.00091 7.84539C9.85866 6.52064 9.89596 4.77458 9.09881 3.41237C8.86106 3.00512 8.48813 2.56509 8.12918 2.27018C7.54181 1.78803 6.80526 1.46503 6.05007 1.35736C5.77037 1.32459 5.12239 1.32928 4.84269 1.36672ZM5.65849 2.00804C5.69578 2.03144 5.75172 2.0923 5.77503 2.14379C5.82164 2.23741 5.82164 2.26082 5.82164 3.81963V5.40653L6.44631 6.03848C7.13158 6.73129 7.14556 6.75469 7.09895 6.94194C7.03834 7.16195 6.81924 7.26962 6.61413 7.17131C6.5209 7.12918 5.183 5.77634 5.15503 5.69676C5.13638 5.65463 5.13172 5.06949 5.13172 3.91325V2.18592L5.18299 2.11102C5.24826 2.00804 5.40209 1.93314 5.51397 1.95186C5.55127 1.96123 5.62119 1.98463 5.65849 2.00804ZM2.40929 5.20056C2.4932 5.25205 2.58178 5.38781 2.60508 5.50015C2.63772 5.65463 2.5305 5.86528 2.37666 5.94018C2.13892 6.06189 1.85455 5.9355 1.77064 5.67335C1.71004 5.47675 1.84523 5.22397 2.05034 5.15843C2.14358 5.12566 2.33005 5.14907 2.40929 5.20056ZM8.90302 5.17716C9.07084 5.25673 9.15009 5.38312 9.15009 5.57037C9.15009 5.82783 8.96828 5.99167 8.70256 5.97763C8.59068 5.97295 8.55339 5.9589 8.48347 5.90273C8.3576 5.80443 8.297 5.66867 8.31098 5.52824C8.34362 5.23801 8.64196 5.05545 8.90302 5.17716ZM5.63518 8.45862C5.803 8.5382 5.88225 8.66459 5.88225 8.85183C5.88225 9.09057 5.70977 9.26377 5.47202 9.26377C5.34149 9.26377 5.26224 9.23569 5.17833 9.16079C4.99653 8.99227 4.99187 8.72076 5.16435 8.54756C5.29954 8.41649 5.47202 8.38372 5.63518 8.45862Z" fill="#005473"/>
</svg>