<svg xmlns="http://www.w3.org/2000/svg" width="47" height="78" viewBox="0 0 47 78" fill="none">
<path d="M41.0588 50.867C36.8773 53.5169 31.1239 54.5678 27.3239 54.9638L30.5134 58.1011L42.1576 69.7213C46.4154 74.0769 39.4869 80.8846 35.1833 76.6812C32.2685 73.7267 27.9954 69.4624 23.5392 65.0153L11.895 76.666C7.59138 80.8541 0.662875 73.9856 4.96648 69.706C7.92712 66.7515 12.1544 62.4872 16.6106 58.0858L19.7544 54.9485C16.0002 54.5526 10.1552 53.5626 5.92793 50.8517C0.952835 47.6535 -1.22949 45.7803 0.693397 41.8663C1.82271 39.6427 4.9207 37.7695 9.02592 40.9982C9.02592 40.9982 14.5657 45.3995 23.5086 45.3995C32.4516 45.3995 37.9913 40.9982 37.9913 40.9982C42.0966 37.7847 45.1793 39.6427 46.3239 41.8663C48.2162 45.7803 46.0339 47.6535 41.0588 50.867ZM3.69982 19.7528C3.69982 8.83319 12.597 0 23.4934 0C34.3897 0 43.2869 8.83319 43.2869 19.7528C43.2869 30.6268 34.3897 39.46 23.4934 39.46C12.597 39.46 3.69982 30.6268 3.69982 19.7528ZM13.7721 19.7528C13.7721 25.0984 18.1367 29.4541 23.4934 29.4541C28.85 29.4541 33.2146 25.0984 33.2146 19.7528C33.2146 14.3615 28.85 10.0059 23.4934 10.0059C18.1367 10.0059 13.7721 14.3615 13.7721 19.7528Z" fill="white"/>
</svg>