<svg xmlns="http://www.w3.org/2000/svg" width="81" height="81" viewBox="0 0 81 81" fill="none">
<circle cx="40.5" cy="40.5" r="40.5" fill="white"/>
<path d="M47.0332 43.7706C51.8476 41.4114 55.1636 36.4553 55.1636 30.7194C55.1636 22.7004 48.6785 16.2002 40.6747 16.2002C32.6709 16.2002 26.1858 22.7004 26.1858 30.7194C26.1858 36.4502 29.5018 41.4064 34.3162 43.7706C25.4163 46.4942 18.9414 54.7916 18.9414 64.6028C18.9414 65.271 19.4831 65.8127 20.1513 65.8127C20.8196 65.8127 21.3562 65.271 21.3562 64.6028C21.3562 53.9108 30.003 45.2438 40.6747 45.2438C51.3414 45.2438 59.9932 53.9108 59.9932 64.6028C59.9932 65.271 60.5349 65.8127 61.1981 65.8127C61.8663 65.8127 62.403 65.271 62.403 64.6028C62.408 54.7916 55.9331 46.4942 47.0332 43.7706ZM28.5905 30.7194C28.5905 24.0319 34.0023 18.6049 40.6747 18.6049C47.3471 18.6049 52.7589 24.0268 52.7589 30.7194C52.7589 37.407 47.3471 42.834 40.6747 42.834C34.0023 42.834 28.5905 37.4121 28.5905 30.7194Z" fill="#005473"/>
</svg>