<svg xmlns="http://www.w3.org/2000/svg" width="26" height="21" viewBox="0 0 26 21" fill="none">
<path d="M6.13194 7.87505H7.50222C7.9495 7.87505 8.25825 7.43085 8.10591 7.00633C7.90562 6.44934 7.79919 5.85871 7.79919 5.25003C7.79919 4.64136 7.90562 4.05073 8.10591 3.49373C8.25866 3.06922 7.9495 2.62502 7.50222 2.62502H6.13194C5.84716 2.62502 5.58512 2.80918 5.50591 3.08563C5.30725 3.78207 5.2 4.50683 5.2 5.25003C5.2 5.99324 5.30725 6.71799 5.50631 7.41403C5.58512 7.69048 5.84716 7.87505 6.13194 7.87505ZM3.653 0.957311C3.88212 0.521722 3.57378 0 3.08587 0H1.65059C1.39587 0 1.15741 0.147247 1.05178 0.381858C0.381875 1.86786 0 3.51301 0 5.25003C0 6.26518 0.12675 8.05265 1.08428 10.1252C1.19072 10.3561 1.42634 10.5001 1.67781 10.5001H3.09319C3.5815 10.5001 3.88984 9.97752 3.65991 9.54153C1.63759 5.71392 2.98106 2.23455 3.653 0.957311ZM24.9462 0.381038C24.8406 0.146837 24.6025 0 24.3478 0H22.9088C22.4222 0 22.1102 0.519261 22.3393 0.953619C23.0815 2.36005 24.3063 5.85174 22.3507 9.53537C22.1183 9.97342 22.4238 10.5001 22.9158 10.5001H24.347C24.6017 10.5001 24.8397 10.3532 24.9454 10.119C25.6169 8.63302 26 6.98747 26 5.25003C26 3.5126 25.6173 1.86704 24.9462 0.381038ZM19.8681 2.62502H18.4978C18.0505 2.62502 17.7417 3.06922 17.8941 3.49373C18.0944 4.05073 18.2008 4.64136 18.2008 5.25003C18.2008 5.85871 18.0944 6.44934 17.8941 7.00633C17.7413 7.43085 18.0505 7.87505 18.4978 7.87505H19.8681C20.1532 7.87505 20.4149 7.69089 20.4941 7.41403C20.6932 6.71799 20.8 5.99324 20.8 5.25003C20.8 4.50683 20.6927 3.78207 20.4937 3.08604C20.4149 2.80918 20.1528 2.62502 19.8681 2.62502ZM15.1434 6.73153C15.4298 6.30947 15.5984 5.80006 15.5984 5.25003C15.5984 3.80012 14.4353 2.62502 13 2.62502C11.5651 2.62502 10.4016 3.80012 10.4016 5.25003C10.4016 5.80006 10.5702 6.30947 10.8566 6.73153L5.55506 19.5863C5.41694 19.9206 5.57375 20.3049 5.90484 20.4444L7.10369 20.9493C7.43478 21.0887 7.81544 20.9304 7.95316 20.5961L9.9515 15.7501H16.0481L18.0468 20.5961C18.185 20.9308 18.5652 21.0887 18.8963 20.9493L20.0952 20.4444C20.4262 20.3049 20.5827 19.9206 20.4449 19.5863L15.1434 6.73153ZM11.0346 13.1251L13 8.35945L14.9654 13.1251H11.0346Z" fill="#005473"/>
</svg>