<svg xmlns="http://www.w3.org/2000/svg" width="29" height="29" viewBox="0 0 29 29" fill="none">
<path d="M19.9371 5.43749C19.9371 2.43441 17.5027 0 14.4997 0C11.4967 0 9.06232 2.43441 9.06232 5.43749C9.06232 8.44056 11.4967 10.875 14.4997 10.875C17.5027 10.875 19.9371 8.44056 19.9371 5.43749ZM13.2304 13.656C9.87 11.5988 4.42694 11.0336 1.68786 10.8778C0.767465 10.8257 0 11.5269 0 12.4122V25.0317C0 25.8434 0.656452 26.5202 1.50038 26.5638C3.97326 26.6935 8.97623 27.1687 12.4341 28.9104C12.9648 29.1778 13.5941 28.8136 13.5941 28.2381V14.3051C13.5935 14.0406 13.4626 13.7982 13.2304 13.656ZM27.3116 10.8778C24.5731 11.033 19.1294 11.5988 15.7696 13.656C15.5374 13.7982 15.4065 14.0502 15.4065 14.3147V28.2364C15.4065 28.8136 16.0375 29.1783 16.5699 28.9104C20.0272 27.1704 25.0273 26.6952 27.4996 26.5655C28.3435 26.5213 29 25.8445 29 25.0328V12.4122C28.9994 11.5269 28.232 10.8257 27.3116 10.8778Z" fill="#005473"/>
</svg>