<svg xmlns="http://www.w3.org/2000/svg" width="25" height="21" viewBox="0 0 25 21" fill="none">
<path d="M21.1115 4.34279C17.7725 2.2344 13.3346 1.75449 9.64798 2.39036C5.52342 -1.41163 0.901474 0.337139 0 0.839868C0 0.839868 3.17187 3.41573 2.65668 5.67179C-1.09852 9.33026 0.68663 13.4035 2.65668 15.3269C3.17187 17.583 0 20.1588 0 20.1588C0.892793 20.6632 5.50216 22.4066 9.64798 18.6241C13.3264 19.2558 17.7643 18.7801 21.1115 16.6679C26.2877 13.5097 26.3046 7.5172 21.1115 4.34238V4.34279ZM12.7682 16.6476C11.4774 16.6512 10.1916 16.4926 8.94399 16.176L8.08592 16.9678C7.6093 17.4096 7.07561 17.7914 6.49781 18.104C5.7968 18.4413 5.03525 18.6486 4.25346 18.715C4.29686 18.6411 4.33506 18.5673 4.37369 18.4976C5.23219 16.9767 5.46367 15.6122 5.06813 14.404C3.65624 13.3417 2.81119 11.9841 2.81119 10.4996C2.81119 7.09826 7.27038 4.34279 12.7682 4.34279C18.266 4.34279 22.7252 7.09826 22.7252 10.4996C22.7252 13.9009 18.266 16.6476 12.7682 16.6476ZM7.9913 11.9638C7.59712 11.9691 7.2168 11.8249 6.93368 11.5627C6.65056 11.3005 6.48774 10.9418 6.48089 10.5651C6.45051 8.68236 9.42489 8.64129 9.45484 10.5199V10.541C9.45667 10.7264 9.42025 10.9103 9.34767 11.0821C9.27509 11.254 9.16777 11.4105 9.03185 11.5428C8.89592 11.675 8.73406 11.7803 8.55551 11.8527C8.37696 11.9251 8.18524 11.9631 7.9913 11.9646V11.9638ZM11.1931 10.5651C11.1588 8.68236 14.1332 8.63715 14.1675 10.5157V10.541C14.1844 12.4109 11.2274 12.4313 11.1931 10.5651ZM17.4162 11.9638C17.022 11.9691 16.6416 11.8249 16.3584 11.5627C16.0752 11.3006 15.9123 10.9418 15.9053 10.5651C15.8754 8.68236 18.8498 8.64129 18.8797 10.5199V10.541C18.8822 10.7266 18.8462 10.9107 18.7739 11.0828C18.7015 11.255 18.5942 11.4118 18.4582 11.5441C18.3221 11.6764 18.16 11.7817 17.9812 11.8539C17.8023 11.9261 17.6103 11.9637 17.4162 11.9646V11.9638Z" fill="#005473"/>
</svg>