<svg xmlns="http://www.w3.org/2000/svg" width="27" height="21" viewBox="0 0 27 21" fill="none">
<path d="M19.5 7.5C19.5 3.35766 15.135 0 9.75 0C4.365 0 0 3.35766 0 7.5C0 9.10641 0.662344 10.5914 1.77984 11.8116C1.15359 13.2291 0.118125 14.3512 0.103125 14.3672C0.0526514 14.4203 0.0188756 14.4871 0.00597895 14.5593C-0.00691768 14.6315 0.00163112 14.7058 0.030567 14.7732C0.059503 14.8405 0.107555 14.8979 0.168776 14.9382C0.229996 14.9785 0.301696 15 0.375 15C2.08969 15 3.51234 14.4258 4.53422 13.8291C6.04359 14.5669 7.82906 15 9.75 15C15.135 15 19.5 11.6423 19.5 7.5ZM9 12V11.2364C8.47078 11.2092 7.95609 11.0245 7.52953 10.7044C7.34672 10.567 7.33734 10.2933 7.50281 10.1353L8.05359 9.60984C8.18344 9.48609 8.37656 9.48047 8.52844 9.57562C8.70984 9.68906 8.91562 9.75 9.12937 9.75H10.447C10.7517 9.75 11.0002 9.4725 11.0002 9.13172C11.0002 8.85281 10.8309 8.60719 10.5891 8.535L8.47969 7.90219C7.60828 7.64062 6.99938 6.80438 6.99938 5.86828C6.99938 4.71891 7.89234 3.78516 8.99953 3.75563V3C8.99953 2.79281 9.16734 2.625 9.37453 2.625H10.1245C10.3317 2.625 10.4995 2.79281 10.4995 3V3.76359C11.0288 3.79078 11.5434 3.975 11.97 4.29562C12.1528 4.43297 12.1622 4.70672 11.9967 4.86469L11.4459 5.39016C11.3161 5.51391 11.123 5.51953 10.9711 5.42438C10.7897 5.31047 10.5839 5.25 10.3702 5.25H9.0525C8.74781 5.25 8.49938 5.5275 8.49938 5.86828C8.49938 6.14719 8.66859 6.39281 8.91047 6.465L11.0198 7.09781C11.8912 7.35938 12.5002 8.19563 12.5002 9.13172C12.5002 10.2816 11.6072 11.2148 10.5 11.2444V12C10.5 12.2072 10.3322 12.375 10.125 12.375H9.375C9.16781 12.375 9 12.2072 9 12ZM25.2192 17.812C26.3377 16.5919 27 15.1064 27 13.5C27 10.3622 24.4927 7.67812 20.9377 6.55922C20.978 6.86859 21 7.18219 21 7.5C21 12.4627 15.9534 16.5 9.75 16.5C9.24469 16.5 8.75063 16.4639 8.26266 16.4119C9.74063 19.1077 13.208 21 17.25 21C19.1709 21 20.9564 20.5669 22.4658 19.8291C23.4877 20.4258 24.9103 21 26.625 21C26.775 21 26.9105 20.9105 26.9691 20.7731C27.0286 20.6353 27 20.4759 26.8964 20.3667C26.8819 20.3512 25.8455 19.2305 25.2192 17.812Z" fill="#005473"/>
</svg>