<svg xmlns="http://www.w3.org/2000/svg" width="25" height="25" viewBox="0 0 25 25" fill="none">
<path d="M24.66 21.6143L19.7914 16.7466C19.5717 16.5269 19.2738 16.4048 18.9613 16.4048H18.1654C19.5131 14.6812 20.3139 12.5137 20.3139 10.1553C20.3139 4.54541 15.7675 0 10.1572 0C4.54685 0 0 4.54541 0 10.1553C0 15.7651 4.54636 20.3105 10.1572 20.3105C12.5156 20.3105 14.684 19.5098 16.4076 18.1621V18.958C16.4076 19.2705 16.5297 19.5684 16.7494 19.7881L21.6181 24.6558C22.077 25.1147 22.8192 25.1147 23.2733 24.6558L24.6552 23.2739C25.1141 22.8149 25.1141 22.0732 24.66 21.6143ZM10.1572 17.1855C6.27341 17.1855 3.12596 14.0439 3.12596 10.1553C3.12596 6.27197 6.26804 3.125 10.1572 3.125C14.0409 3.125 17.1884 6.2666 17.1884 10.1553C17.1884 14.0386 14.0463 17.1855 10.1572 17.1855ZM11.4809 9.7373L9.28316 9.07812C9.03121 9.00244 8.85494 8.74707 8.85494 8.45654C8.85494 8.10156 9.11372 7.8125 9.43111 7.8125H10.8037C11.0263 7.8125 11.2412 7.87549 11.4296 7.99414C11.5878 8.09326 11.789 8.0874 11.9243 7.9585L12.498 7.41113C12.6703 7.24658 12.6606 6.96143 12.4702 6.81836C12.0258 6.48486 11.4897 6.29248 10.9384 6.26416V5.46875C10.9384 5.25293 10.7636 5.07812 10.5478 5.07812H9.76655C9.55073 5.07812 9.37593 5.25293 9.37593 5.46875V6.25586C8.22213 6.28662 7.29196 7.25928 7.29196 8.45654C7.29196 9.43164 7.92623 10.3027 8.83394 10.5752L11.0317 11.2344C11.2836 11.3101 11.4599 11.5654 11.4599 11.856C11.4599 12.2109 11.2011 12.5 10.8837 12.5H9.51167C9.28902 12.5 9.07417 12.437 8.8857 12.3184C8.7275 12.2192 8.52633 12.2251 8.39107 12.354L7.81734 12.9014C7.64498 13.0659 7.65475 13.3511 7.84518 13.4941C8.28951 13.8276 8.82564 14.02 9.37691 14.0483V14.8438C9.37691 15.0596 9.55171 15.2344 9.76753 15.2344H10.5488C10.7646 15.2344 10.9394 15.0596 10.9394 14.8438V14.0566C12.0932 14.0259 13.0234 13.0537 13.0234 11.856C13.0234 10.8809 12.3891 10.0098 11.4809 9.7373Z" fill="#005473"/>
</svg>