<svg xmlns="http://www.w3.org/2000/svg" width="29" height="21" viewBox="0 0 29 21" fill="none">
<path d="M8.7 10.5C11.5048 10.5 13.775 8.15156 13.775 5.25C13.775 2.34844 11.5048 0 8.7 0C5.89516 0 3.625 2.34844 3.625 5.25C3.625 8.15156 5.89516 10.5 8.7 10.5ZM12.18 12H11.8039C10.8614 12.4688 9.81469 12.75 8.7 12.75C7.58531 12.75 6.54313 12.4688 5.59609 12H5.22C2.33812 12 0 14.4188 0 17.4V18.75C0 19.9922 0.974219 21 2.175 21H15.225C16.4258 21 17.4 19.9922 17.4 18.75V17.4C17.4 14.4188 15.0619 12 12.18 12ZM21.75 10.5C24.1516 10.5 26.1 8.48438 26.1 6C26.1 3.51562 24.1516 1.5 21.75 1.5C19.3484 1.5 17.4 3.51562 17.4 6C17.4 8.48438 19.3484 10.5 21.75 10.5ZM23.925 12H23.7528C23.123 12.225 22.4569 12.375 21.75 12.375C21.0431 12.375 20.377 12.225 19.7472 12H19.575C18.6506 12 17.7987 12.2766 17.0511 12.7219C18.1567 13.9547 18.85 15.5906 18.85 17.4V19.2C18.85 19.3031 18.8273 19.4016 18.8228 19.5H26.825C28.0258 19.5 29 18.4922 29 17.25C29 14.3484 26.7298 12 23.925 12Z" fill="#005473"/>
</svg>