<svg xmlns="http://www.w3.org/2000/svg" width="22" height="25" viewBox="0 0 22 25" fill="none">
<path d="M21.4107 7.8125H0.589286C0.263853 7.8125 0 7.55015 0 7.22656V5.46875C0 4.17432 1.05531 3.125 2.35714 3.125H4.71429V0.585938C4.71429 0.262354 4.97814 0 5.30357 0H7.26786C7.59329 0 7.85714 0.262354 7.85714 0.585938V3.125H14.1429V0.585938C14.1429 0.262354 14.4067 0 14.7321 0H16.6964C17.0219 0 17.2857 0.262354 17.2857 0.585938V3.125H19.6429C20.9447 3.125 22 4.17432 22 5.46875V7.22656C22 7.55015 21.7361 7.8125 21.4107 7.8125ZM0.589286 9.375H21.4107C21.7361 9.375 22 9.63735 22 9.96094V22.6562C22 23.9507 20.9447 25 19.6429 25H2.35714C1.05531 25 0 23.9507 0 22.6562V9.96094C0 9.63735 0.263853 9.375 0.589286 9.375ZM16.9565 14.0599L15.5732 12.6733C15.344 12.4436 14.9709 12.442 14.7399 12.67L9.53268 17.8059L7.27473 15.5426C7.04555 15.3129 6.67238 15.3114 6.44134 15.5393L5.04684 16.9148C4.81579 17.1427 4.81427 17.5137 5.0435 17.7434L9.0998 21.8093C9.32898 22.039 9.7021 22.0405 9.93315 21.8126L16.9532 14.8885C17.1842 14.6606 17.1857 14.2896 16.9565 14.0599Z" fill="#005473"/>
</svg>