<svg xmlns="http://www.w3.org/2000/svg" width="101" height="33" viewBox="0 0 101 33" fill="none">
  <mask id="mask0_2457_6270" style="mask-type:luminance" maskUnits="userSpaceOnUse" x="0" y="0" width="101" height="33">
    <path d="M0 0H100.982V32.5234H0V0Z" fill="white"/>
  </mask>
  <g mask="url(#mask0_2457_6270)">
    <mask id="mask1_2457_6270" style="mask-type:luminance" maskUnits="userSpaceOnUse" x="0" y="0" width="101" height="33">
      <path d="M94.8522 32.5234H6.12764C2.75002 32.5234 0 29.7708 0 26.3932V6.13021C0 2.7526 2.75002 0 6.12764 0H94.8522C98.2298 0 100.982 2.7526 100.982 6.13021V26.3932C100.982 29.7708 98.2298 32.5234 94.8522 32.5234Z" fill="white"/>
    </mask>
    <g mask="url(#mask1_2457_6270)">
      <path d="M0 0H100.982V32.5234H0V0Z" fill="black"/>
    </g>
  </g>
  <path d="M34.2149 11.3021H37.0065V14.2604H36.569L36.4128 13.2917C36.1966 13.599 35.8841 13.8542 35.4753 14.0625C35.0716 14.263 34.5925 14.3646 34.0378 14.3646C33.4597 14.3646 32.9336 14.2266 32.4544 13.9479C31.9753 13.6719 31.5951 13.2917 31.319 12.8125C31.0404 12.3333 30.9023 11.8073 30.9023 11.2292C30.9023 10.6536 31.0404 10.125 31.319 9.64583C31.5951 9.16667 31.9779 8.78906 32.4649 8.51042C32.9492 8.23438 33.4857 8.09375 34.069 8.09375C34.5534 8.09375 34.9909 8.1875 35.3815 8.375C35.7774 8.55729 36.1003 8.79688 36.3503 9.09375C36.6055 9.39323 36.7878 9.71354 36.892 10.0521H36.2461C35.8347 9.15625 35.1107 8.70833 34.069 8.70833C33.5951 8.70833 33.1654 8.81771 32.7774 9.03125C32.3945 9.23958 32.0925 9.53906 31.8711 9.92708C31.655 10.3099 31.5482 10.7448 31.5482 11.2292C31.5482 11.724 31.655 12.1615 31.8711 12.5417C32.0925 12.9245 32.3945 13.224 32.7774 13.4375C33.1654 13.6536 33.5951 13.7604 34.069 13.7604C34.4987 13.7604 34.8841 13.6849 35.2253 13.5312C35.5638 13.3802 35.8321 13.1615 36.0274 12.875C36.2279 12.5911 36.3399 12.2604 36.3607 11.8854H34.2149V11.3021Z" fill="white"/>
  <path d="M42.5209 11.9714C42.5209 12.125 42.5052 12.2682 42.4792 12.3984H38.5938C38.6563 12.8307 38.8385 13.1693 39.1458 13.4193C39.4583 13.6693 39.8386 13.7943 40.2917 13.7943C40.9427 13.7943 41.4193 13.5755 41.7188 13.138H42.3438C42.1901 13.5 41.9297 13.7943 41.5625 14.0234C41.2005 14.2526 40.7709 14.3672 40.2708 14.3672C39.8542 14.3672 39.4688 14.2734 39.1146 14.0859C38.7604 13.8932 38.4792 13.625 38.2708 13.2839C38.0677 12.9375 37.9688 12.5417 37.9688 12.0964C37.9688 11.6667 38.0755 11.2786 38.2917 10.9297C38.5052 10.5833 38.7865 10.3151 39.1354 10.1276C39.4896 9.9349 39.8672 9.83594 40.2708 9.83594C40.6719 9.83594 41.0443 9.92969 41.3854 10.1172C41.7318 10.3047 42.0052 10.5625 42.2084 10.888C42.4167 11.2161 42.5209 11.5755 42.5209 11.9714ZM40.2708 10.3984C39.9922 10.3984 39.7318 10.4583 39.4896 10.5755C39.2448 10.6953 39.0443 10.8646 38.8854 11.0859C38.724 11.3099 38.6276 11.5599 38.5938 11.8359H41.9167C41.8959 11.5651 41.8073 11.3229 41.6563 11.1068C41.5026 10.8854 41.3021 10.7109 41.0521 10.5859C40.8073 10.4609 40.5469 10.3984 40.2708 10.3984Z" fill="white"/>
  <path d="M45.4336 14.3646C44.9961 14.3646 44.6471 14.2292 44.3919 13.9583C44.1341 13.6875 44.0065 13.3099 44.0065 12.8229V10.5H43.0586V9.9375H43.5378C43.9128 9.9375 44.1003 9.75 44.1003 9.375V8.78125H44.6107V9.9375H45.944V10.5H44.6107V12.8229C44.6107 13.151 44.6836 13.3932 44.8294 13.5521C44.9753 13.7135 45.1862 13.7917 45.4649 13.7917C45.6445 13.7917 45.8034 13.7604 45.944 13.6979V14.25C45.8034 14.3255 45.6341 14.3646 45.4336 14.3646Z" fill="white"/>
  <path d="M49.7995 14.2656H49.1953V9.94271H49.7995V14.2656ZM49.5078 9.27604C49.375 9.27604 49.2682 9.23958 49.1849 9.16146C49.1068 9.07812 49.0703 8.97917 49.0703 8.85938C49.0703 8.75 49.1068 8.65625 49.1849 8.57812C49.2682 8.49479 49.375 8.45312 49.5078 8.45312C49.6328 8.45312 49.7318 8.49479 49.8099 8.57812C49.8932 8.65625 49.9349 8.75 49.9349 8.85938C49.9349 8.97917 49.8932 9.07812 49.8099 9.16146C49.7318 9.23958 49.6328 9.27604 49.5078 9.27604Z" fill="white"/>
  <path d="M53.0274 14.3646C52.5899 14.3646 52.2409 14.2292 51.9857 13.9583C51.7279 13.6875 51.6003 13.3099 51.6003 12.8229V10.5H50.6523V9.9375H51.1315C51.5065 9.9375 51.694 9.75 51.694 9.375V8.78125H52.2044V9.9375H53.5378V10.5H52.2044V12.8229C52.2044 13.151 52.2774 13.3932 52.4232 13.5521C52.569 13.7135 52.78 13.7917 53.0586 13.7917C53.2383 13.7917 53.3972 13.7604 53.5378 13.6979V14.25C53.3972 14.3255 53.2279 14.3646 53.0274 14.3646Z" fill="white"/>
  <path d="M58.8073 14.3672C58.3906 14.3672 58.0052 14.2682 57.651 14.0755C57.2969 13.8828 57.0104 13.6146 56.7969 13.2734C56.5885 12.9271 56.4844 12.5339 56.4844 12.0964C56.4844 11.6667 56.5885 11.2786 56.7969 10.9297C57.0104 10.5833 57.2969 10.3151 57.651 10.1276C58.0052 9.9349 58.3906 9.83594 58.8073 9.83594C59.224 9.83594 59.6094 9.9349 59.9636 10.1276C60.3177 10.3151 60.599 10.5833 60.8073 10.9297C61.0209 11.2786 61.1302 11.6667 61.1302 12.0964C61.1302 12.5339 61.0209 12.9271 60.8073 13.2734C60.599 13.6146 60.3177 13.8828 59.9636 14.0755C59.6094 14.2682 59.224 14.3672 58.8073 14.3672ZM58.8073 13.7943C59.1198 13.7943 59.4063 13.7266 59.6719 13.5859C59.9349 13.4401 60.1433 13.2396 60.2969 12.9818C60.4479 12.7266 60.5261 12.4297 60.5261 12.0964C60.5261 11.7708 60.4479 11.4792 60.2969 11.2214C60.1433 10.9583 59.9349 10.7578 59.6719 10.6172C59.4063 10.4714 59.1198 10.3984 58.8073 10.3984C58.4948 10.3984 58.2057 10.4714 57.9427 10.6172C57.6849 10.7578 57.4792 10.9583 57.3281 11.2214C57.1745 11.4792 57.099 11.7708 57.099 12.0964C57.099 12.4297 57.1745 12.7266 57.3281 12.9818C57.4792 13.2396 57.6849 13.4401 57.9427 13.5859C58.2057 13.7266 58.4948 13.7943 58.8073 13.7943Z" fill="white"/>
  <path d="M62.1484 14.263V9.9401H62.6068L62.7526 10.5234H62.8047C62.9349 10.3359 63.1302 10.1771 63.388 10.0443C63.6511 9.90625 63.9714 9.83594 64.3464 9.83594C64.7266 9.83594 65.0703 9.92448 65.3776 10.0964C65.6823 10.263 65.9219 10.5026 66.0964 10.8151C66.2683 11.1276 66.3568 11.4974 66.3568 11.9193V14.263H65.7526V11.9401C65.7526 11.4557 65.6198 11.0755 65.3568 10.8047C65.0912 10.5339 64.737 10.3984 64.2943 10.3984C63.8203 10.3984 63.4453 10.5339 63.1693 10.8047C62.8906 11.0755 62.7526 11.4557 62.7526 11.9401V14.263H62.1484Z" fill="white"/>
  <path d="M71.7774 14.3646C71.3399 14.3646 70.9909 14.2292 70.7357 13.9583C70.4779 13.6875 70.3503 13.3099 70.3503 12.8229V10.5H69.4023V9.9375H69.8815C70.2565 9.9375 70.444 9.75 70.444 9.375V8.78125H70.9544V9.9375H72.2878V10.5H70.9544V12.8229C70.9544 13.151 71.0274 13.3932 71.1732 13.5521C71.319 13.7135 71.53 13.7917 71.8086 13.7917C71.9883 13.7917 72.1472 13.7604 72.2878 13.6979V14.25C72.1472 14.3255 71.9779 14.3646 71.7774 14.3646Z" fill="white"/>
  <path d="M73.3438 14.2656V8.20312H73.9583V10.526H74C74.1302 10.3385 74.3255 10.1797 74.5833 10.0469C74.8464 9.90885 75.1693 9.83854 75.5521 9.83854C75.9271 9.83854 76.2656 9.92708 76.5729 10.099C76.8776 10.2656 77.1172 10.5052 77.2917 10.8177C77.4636 11.1302 77.5521 11.5 77.5521 11.9219V14.2656H76.9479V11.9427C76.9479 11.4583 76.8151 11.0781 76.5521 10.8073C76.2865 10.5365 75.9323 10.401 75.4896 10.401C75.0156 10.401 74.6406 10.5365 74.3646 10.8073C74.0938 11.0781 73.9583 11.4583 73.9583 11.9427V14.2656H73.3438Z" fill="white"/>
  <path d="M83.0834 11.9714C83.0834 12.125 83.0677 12.2682 83.0417 12.3984H79.1563C79.2188 12.8307 79.401 13.1693 79.7083 13.4193C80.0208 13.6693 80.4011 13.7943 80.8542 13.7943C81.5052 13.7943 81.9818 13.5755 82.2813 13.138H82.9063C82.7526 13.5 82.4922 13.7943 82.125 14.0234C81.763 14.2526 81.3334 14.3672 80.8333 14.3672C80.4167 14.3672 80.0313 14.2734 79.6771 14.0859C79.3229 13.8932 79.0417 13.625 78.8333 13.2839C78.6302 12.9375 78.5312 12.5417 78.5312 12.0964C78.5312 11.6667 78.638 11.2786 78.8542 10.9297C79.0677 10.5833 79.349 10.3151 79.6979 10.1276C80.0521 9.9349 80.4297 9.83594 80.8333 9.83594C81.2344 9.83594 81.6068 9.92969 81.9479 10.1172C82.2943 10.3047 82.5677 10.5625 82.7709 10.888C82.9792 11.2161 83.0834 11.5755 83.0834 11.9714ZM80.8333 10.3984C80.5547 10.3984 80.2943 10.4583 80.0521 10.5755C79.8073 10.6953 79.6068 10.8646 79.4479 11.0859C79.2865 11.3099 79.1901 11.5599 79.1563 11.8359H82.4792C82.4584 11.5651 82.3698 11.3229 82.2188 11.1068C82.0651 10.8854 81.8646 10.7109 81.6146 10.5859C81.3698 10.4609 81.1094 10.3984 80.8333 10.3984Z" fill="white"/>
  <path d="M37.017 23.7578H35.6107L35.1107 22.5495H32.3294L31.8294 23.7578H30.4648L33.1107 17.6953H34.3607L37.017 23.7578ZM34.5899 21.3203L33.7149 19.3099L32.8503 21.3203H34.5899Z" fill="white"/>
  <path d="M37.5078 25.3229V19.3438H38.4557L38.6537 19.7812H38.6953C39.0964 19.4062 39.612 19.2188 40.237 19.2188C40.6667 19.2188 41.0599 19.3203 41.4141 19.5208C41.7735 19.724 42.0599 20 42.2683 20.3542C42.4766 20.7083 42.5808 21.1094 42.5808 21.5521C42.5808 21.9974 42.4766 22.3958 42.2683 22.75C42.0599 23.1042 41.7735 23.3828 41.4141 23.5833C41.0599 23.7839 40.6667 23.8854 40.237 23.8854C39.8958 23.8854 39.6042 23.8359 39.362 23.7396C39.125 23.6354 38.9375 23.5156 38.7995 23.375H38.7578V25.3229H37.5078ZM40.0391 22.7604C40.4063 22.7604 40.711 22.6458 40.9558 22.4167C41.1979 22.1875 41.3203 21.901 41.3203 21.5521C41.3203 21.2057 41.1979 20.9219 40.9558 20.6979C40.711 20.4688 40.4063 20.3542 40.0391 20.3542C39.6771 20.3542 39.3724 20.4688 39.1224 20.6979C38.8776 20.9219 38.7578 21.2057 38.7578 21.5521C38.7578 21.901 38.8776 22.1875 39.1224 22.4167C39.3724 22.6458 39.6771 22.7604 40.0391 22.7604Z" fill="white"/>
  <path d="M43.3906 25.3229V19.3438H44.3385L44.5365 19.7812H44.5781C44.9792 19.4062 45.4948 19.2188 46.1198 19.2188C46.5495 19.2188 46.9427 19.3203 47.2969 19.5208C47.6563 19.724 47.9427 20 48.1511 20.3542C48.3594 20.7083 48.4636 21.1094 48.4636 21.5521C48.4636 21.9974 48.3594 22.3958 48.1511 22.75C47.9427 23.1042 47.6563 23.3828 47.2969 23.5833C46.9427 23.7839 46.5495 23.8854 46.1198 23.8854C45.7787 23.8854 45.487 23.8359 45.2448 23.7396C45.0078 23.6354 44.8203 23.5156 44.6823 23.375H44.6406V25.3229H43.3906ZM45.9219 22.7604C46.2891 22.7604 46.5938 22.6458 46.8386 22.4167C47.0808 22.1875 47.2031 21.901 47.2031 21.5521C47.2031 21.2057 47.0808 20.9219 46.8386 20.6979C46.5938 20.4688 46.2891 20.3542 45.9219 20.3542C45.5599 20.3542 45.2552 20.4688 45.0052 20.6979C44.7604 20.9219 44.6406 21.2057 44.6406 21.5521C44.6406 21.901 44.7604 22.1875 45.0052 22.4167C45.2552 22.6458 45.5599 22.7604 45.9219 22.7604Z" fill="white"/>
  <path d="M54.1576 23.8828C53.6081 23.8828 53.1315 23.7917 52.7305 23.612C52.3346 23.4245 52.0247 23.1797 51.8034 22.8724C51.5872 22.5599 51.4701 22.2161 51.4492 21.8411H52.7617C52.8242 22.1198 52.9727 22.3385 53.2096 22.4974C53.444 22.6589 53.7722 22.737 54.1888 22.737C54.6263 22.737 54.9388 22.6823 55.1263 22.5703C55.3138 22.4609 55.4076 22.3151 55.4076 22.1328C55.4076 21.9193 55.293 21.7552 55.0638 21.6432C54.8347 21.5339 54.4805 21.4141 54.0013 21.2891C53.5065 21.1641 53.1003 21.0391 52.7826 20.9141C52.4622 20.7839 52.1888 20.5885 51.9596 20.3307C51.7357 20.0755 51.6263 19.737 51.6263 19.3203C51.6263 18.987 51.7148 18.6901 51.8971 18.4245C52.0768 18.1615 52.3477 17.9531 52.7096 17.7995C53.0768 17.6484 53.5248 17.5703 54.0534 17.5703C54.5742 17.5703 55.0222 17.6536 55.3972 17.8203C55.7774 17.987 56.069 18.2214 56.2722 18.5182C56.4805 18.8177 56.5951 19.1641 56.6159 19.5599H55.3034C55.2748 19.3177 55.1498 19.1172 54.9284 18.9557C54.7123 18.7969 54.418 18.7161 54.043 18.7161C53.681 18.7161 53.4076 18.7786 53.2201 18.9036C53.0326 19.0286 52.9388 19.1849 52.9388 19.3724C52.9388 19.5807 53.0482 19.737 53.2721 19.8411C53.5013 19.9453 53.8503 20.0495 54.3242 20.1536C54.8164 20.2786 55.2227 20.4036 55.543 20.5286C55.8685 20.6484 56.1472 20.8359 56.3763 21.0911C56.6107 21.349 56.7305 21.6901 56.7305 22.112C56.7305 22.4531 56.6368 22.7578 56.4493 23.0286C56.2617 23.2943 55.9727 23.5026 55.5847 23.6536C55.2018 23.8047 54.7253 23.8828 54.1576 23.8828Z" fill="white"/>
  <path d="M59.7839 23.8802C59.2422 23.8802 58.8151 23.7214 58.5026 23.401C58.1901 23.0833 58.0339 22.638 58.0339 22.0677V20.4635H57.1797V19.4323H57.6276C57.8073 19.4323 57.9427 19.3854 58.0339 19.2865C58.1302 19.1901 58.1797 19.0521 58.1797 18.8698V18.2344H59.2839V19.3385H60.513V20.4635H59.2839V21.9323C59.2839 22.4479 59.5339 22.7031 60.0339 22.7031C60.2136 22.7031 60.3724 22.6719 60.513 22.6094V23.7448C60.3177 23.8333 60.0755 23.8802 59.7839 23.8802Z" fill="white"/>
  <path d="M63.7292 23.8854C63.2344 23.8854 62.7917 23.7812 62.3958 23.5729C62 23.3646 61.6875 23.0833 61.4583 22.7292C61.2344 22.3698 61.125 21.9766 61.125 21.5521C61.125 21.1302 61.2344 20.7396 61.4583 20.3854C61.6875 20.026 62 19.7396 62.3958 19.5312C62.7917 19.3229 63.2344 19.2188 63.7292 19.2188C64.2214 19.2188 64.6667 19.3229 65.0625 19.5312C65.4584 19.7396 65.7657 20.026 65.9896 20.3854C66.2188 20.7396 66.3334 21.1302 66.3334 21.5521C66.3334 21.9766 66.2188 22.3698 65.9896 22.7292C65.7657 23.0833 65.4584 23.3646 65.0625 23.5729C64.6667 23.7812 64.2214 23.8854 63.7292 23.8854ZM63.7292 22.7604C64.1302 22.7604 64.4584 22.6458 64.7084 22.4167C64.9584 22.1875 65.0834 21.901 65.0834 21.5521C65.0834 21.2057 64.9584 20.9219 64.7084 20.6979C64.4584 20.4688 64.1302 20.3542 63.7292 20.3542C63.3255 20.3542 63 20.4688 62.75 20.6979C62.5 20.9219 62.375 21.2057 62.375 21.5521C62.375 21.901 62.5 22.1875 62.75 22.4167C63 22.6458 63.3255 22.7604 63.7292 22.7604Z" fill="white"/>
  <path d="M67.1523 23.7604V19.3438H68.1003L68.2982 19.7812H68.3399C68.6654 19.4062 69.1159 19.2188 69.694 19.2188C69.9362 19.2188 70.1315 19.2448 70.2774 19.2917V20.5521C70.069 20.4974 69.8503 20.4688 69.6211 20.4688C68.8086 20.4688 68.4024 20.8542 68.4024 21.625V23.7604H67.1523Z" fill="white"/>
  <path d="M75.8164 21.5208C75.8164 21.7448 75.7956 21.9036 75.7539 22H71.9831C72.0716 22.25 72.2383 22.4479 72.4831 22.5938C72.7253 22.7344 73.0065 22.8021 73.3268 22.8021C73.7696 22.8021 74.1003 22.7031 74.3164 22.5H75.6498C75.5456 22.737 75.3841 22.9635 75.1706 23.1771C74.9545 23.3854 74.6862 23.5573 74.3685 23.6875C74.0482 23.8177 73.6966 23.8854 73.3164 23.8854C72.8164 23.8854 72.3633 23.7812 71.9622 23.5729C71.5664 23.3646 71.2539 23.0833 71.0247 22.7292C70.8008 22.3698 70.6914 21.9766 70.6914 21.5521C70.6914 21.1302 70.8008 20.7396 71.0247 20.3854C71.2539 20.026 71.5664 19.7396 71.9622 19.5312C72.3581 19.3229 72.8008 19.2188 73.2956 19.2188C73.7383 19.2188 74.1524 19.3203 74.5352 19.5208C74.9232 19.724 75.2331 20 75.4623 20.3542C75.6966 20.7031 75.8164 21.0911 75.8164 21.5208ZM73.2956 20.3021C72.9753 20.3021 72.6966 20.375 72.4623 20.5208C72.2253 20.6667 72.0612 20.8698 71.9727 21.125H74.5664C74.4753 20.875 74.3112 20.6771 74.0768 20.5312C73.8477 20.3802 73.5873 20.3021 73.2956 20.3021Z" fill="white"/>
  <mask id="mask2_2457_6270" style="mask-type:luminance" maskUnits="userSpaceOnUse" x="7" y="9" width="18" height="17">
    <path d="M7.24219 9.70312H24.2423V25.3307H7.24219V9.70312Z" fill="white"/>
  </mask>
  <g mask="url(#mask2_2457_6270)">
    <path fill-rule="evenodd" clip-rule="evenodd" d="M23.7933 19.6354C21.0667 18.2266 20.5823 14.3438 23.0667 12.4036C23.1448 12.3411 23.2073 12.2656 23.2516 12.1745C23.2985 12.0859 23.3219 11.9896 23.3245 11.8906C23.3297 11.7891 23.3115 11.6927 23.2725 11.599C23.2334 11.5078 23.1787 11.4271 23.1032 11.3594C22.6735 10.9375 22.1839 10.6068 21.6292 10.3698C21.0771 10.1328 20.499 10.0052 19.8974 9.98438C18.1136 9.98438 17.3636 10.8333 16.1266 10.8333C14.887 10.8333 13.8844 9.98438 12.3427 9.98438C10.801 9.98438 9.21767 10.9036 8.19683 12.474C6.75933 14.6875 7.00412 18.8438 9.33226 22.3906C10.1526 23.6563 11.275 25.0833 12.7307 25.0964C14.0224 25.0964 14.3922 24.276 16.1474 24.276C17.9 24.276 18.2281 25.0964 19.525 25.0964C20.9808 25.0964 22.1527 23.5052 22.9834 22.2266C23.3896 21.6094 23.736 20.9609 24.0251 20.2839C24.0771 20.1615 24.0797 20.0391 24.0329 19.9141C23.9886 19.7917 23.9079 19.6979 23.7933 19.6354Z" fill="white"/>
  </g>
  <mask id="mask3_2457_6270" style="mask-type:luminance" maskUnits="userSpaceOnUse" x="15" y="5" width="5" height="6">
    <path d="M15.2422 5.33594H19.9089V10.3646H15.2422V5.33594Z" fill="white"/>
  </mask>
  <g mask="url(#mask3_2457_6270)">
    <path fill-rule="evenodd" clip-rule="evenodd" d="M16.3417 10.0164C17.2428 9.78207 17.9824 9.2977 18.5579 8.56593C19.0891 7.89405 19.4094 7.13364 19.5214 6.28728C19.5344 6.16749 19.5162 6.05291 19.4693 5.94353C19.4251 5.83416 19.3548 5.74301 19.261 5.66749C19.1673 5.59457 19.0631 5.5451 18.9459 5.52687C18.8287 5.50603 18.7115 5.51385 18.5995 5.55291C17.774 5.83937 17.0761 6.31593 16.5084 6.9826C15.9485 7.64405 15.6099 8.40447 15.4928 9.26124C15.4797 9.37322 15.4954 9.4826 15.537 9.58676C15.5787 9.69093 15.6412 9.78207 15.7245 9.85499C15.8079 9.93051 15.9042 9.9826 16.0136 10.0112C16.123 10.0399 16.2323 10.0399 16.3417 10.0164Z" fill="white"/>
  </g>
</svg>