<svg xmlns="http://www.w3.org/2000/svg" width="35" height="31" viewBox="0 0 35 31" fill="none">
  <path d="M35 7.65625V27.3438C35 29.1553 33.5303 30.625 31.7188 30.625H3.28125C1.46973 30.625 0 29.1553 0 27.3438V7.65625C0 5.84473 1.46973 4.375 3.28125 4.375H9.29688L10.1377 2.12598C10.6162 0.847656 11.8398 0 13.207 0H21.7861C23.1533 0 24.377 0.847656 24.8555 2.12598L25.7031 4.375H31.7188C33.5303 4.375 35 5.84473 35 7.65625ZM25.7031 17.5C25.7031 12.9746 22.0254 9.29688 17.5 9.29688C12.9746 9.29688 9.29688 12.9746 9.29688 17.5C9.29688 22.0254 12.9746 25.7031 17.5 25.7031C22.0254 25.7031 25.7031 22.0254 25.7031 17.5ZM23.5156 17.5C23.5156 20.8154 20.8154 23.5156 17.5 23.5156C14.1846 23.5156 11.4844 20.8154 11.4844 17.5C11.4844 14.1846 14.1846 11.4844 17.5 11.4844C20.8154 11.4844 23.5156 14.1846 23.5156 17.5Z" fill="black"/>
</svg>