<svg xmlns="http://www.w3.org/2000/svg" width="35" height="35" viewBox="0 0 35 35" fill="none">
  <path d="M18.7878 12.0573V14.8229H22.2669L21.7826 18.599H18.7878V27.2604H14.9961V18.599H11.7461V14.8229H14.9961V12.0573C14.9961 9.06771 17.4128 7.04688 20.4076 7.04688C21.7253 7.04688 22.5534 7.25 22.5534 7.25V10.4427H20.4076C19.5169 10.4427 18.7878 11.1719 18.7878 12.0573Z" fill="white"/>
  <mask id="mask0_2457_6465" style="mask-type:luminance" maskUnits="userSpaceOnUse" x="0" y="0" width="35" height="35">
    <path d="M34.3125 0.328125L33.9836 34.3057L0.000819299 33.9768L0.329717 -0.000823245L34.3125 0.328125Z" fill="white"/>
  </mask>
  <g mask="url(#mask0_2457_6465)">
    <path d="M0.165268 16.988C0.255912 7.62382 7.94394 0.0728813 17.3185 0.163626C26.6983 0.25442 34.2387 7.95277 34.1481 17.3169C34.0573 26.6915 26.3538 34.2318 16.9896 34.1412C7.63067 34.0506 0.0745239 26.3625 0.165268 16.988ZM33.2158 17.3079C33.3016 8.44893 26.1737 1.17647 17.3095 1.09067C8.45057 1.00491 1.18327 8.13803 1.09751 16.997C1.01176 25.8559 8.13962 33.1284 16.9986 33.2142C25.8627 33.3 33.13 26.1668 33.2158 17.3079Z" fill="white"/>
  </g>
</svg>