<svg width="62" height="59" viewBox="0 0 62 59" fill="none" xmlns="http://www.w3.org/2000/svg">
<g id="Group 3008">
<path id="Vector 2" d="M36.3126 38.9926C30.9818 50.6413 19.4481 55.5279 14.3477 56.5151H18.5432V58.4895H32.3638C41.4459 60.0689 43.2229 47.795 42.9761 41.4605L59.7583 42.6945L60.9922 30.8483C62.5717 17.2251 54.5755 16.6164 50.38 18.0149C48.6031 18.8046 46.1844 24.2671 45.1973 26.8995C45.1973 19.7918 51.7785 9.95288 55.0691 5.92188C47.7639 8.88343 39.5209 29.203 36.3126 38.9926Z" fill="#F90000"/>
<path id="Vector 1" d="M19.5361 8.39107C19.7336 2.86283 25.5415 0.658123 28.4208 0.246796L36.3122 0H45.203L43.969 17.0289C35.8741 21.57 32.5341 30.2737 31.876 34.0579C28.1247 26.9501 16.3278 21.8826 10.8983 20.2373C31.6292 32.0835 23.9785 48.5366 17.315 54.2951V42.9425C3.69179 43.7323 0.615056 37.3485 0.779587 34.0579V17.0289L19.5361 18.2629V8.39107Z" fill="#FBBC05"/>
<ellipse id="Ellipse 1" cx="31.9559" cy="9.22767" rx="5.59405" ry="6.58124" transform="rotate(-7.19092 31.9559 9.22767)" fill="white"/>
</g>
</svg>
