<svg xmlns="http://www.w3.org/2000/svg" width="34" height="34" viewBox="0 0 34 34" fill="none">
  <path d="M21.4245 7.22656H12.5651C9.6276 7.22656 7.24219 9.61719 7.24219 12.5547V21.4141C7.24219 24.3464 9.6276 26.737 12.5651 26.737H21.4245C24.362 26.737 26.7526 24.3464 26.7526 21.4141V12.5651C26.7526 9.61719 24.362 7.22656 21.4245 7.22656ZM25.0755 21.4297C25.0755 23.4453 23.4453 25.0755 21.4245 25.0755H12.5651C10.5443 25.0755 8.89844 23.4453 8.89844 21.4297V12.5651C8.89844 10.5495 10.5443 8.90365 12.5651 8.90365H21.4245C23.4453 8.90365 25.0755 10.5339 25.0755 12.5651V21.4297Z" fill="white"/>
  <path d="M23.5143 11.651C23.5143 12.3125 22.9883 12.8542 22.3164 12.8542C21.6549 12.8542 21.1133 12.3281 21.1133 11.651C21.1133 10.9948 21.6393 10.4531 22.3164 10.4531C22.9883 10.4635 23.5143 10.9948 23.5143 11.651Z" fill="white"/>
  <path d="M16.9883 12.0234C14.2539 12.0234 12.0195 14.2578 12.0195 16.9922C12.0195 19.7266 14.2539 21.9557 16.9883 21.9557C19.7227 21.9557 21.957 19.7266 21.957 16.9922C21.957 14.2578 19.7383 12.0234 16.9883 12.0234ZM16.9883 20.2839C15.1706 20.2839 13.6966 18.8099 13.6966 16.9922C13.6966 15.1745 15.1706 13.6953 16.9883 13.6953C18.806 13.6953 20.2799 15.1745 20.2799 16.9922C20.2799 18.8099 18.806 20.2839 16.9883 20.2839Z" fill="white"/>
  <mask id="mask0_2457_6456" style="mask-type:luminance" maskUnits="userSpaceOnUse" x="0" y="0" width="34" height="34">
    <path d="M0 0H33.9844V33.9844H0V0Z" fill="white"/>
  </mask>
  <g mask="url(#mask0_2457_6456)">
    <path d="M16.9896 33.9844C7.63021 33.9844 0 26.3698 0 16.9948C0 7.63021 7.63021 0 16.9896 0C26.3646 0 33.9844 7.63021 33.9844 16.9948C33.9844 26.3698 26.3646 33.9844 16.9896 33.9844ZM16.9896 0.932292C8.13021 0.932292 0.927083 8.13021 0.927083 16.9948C0.927083 25.8542 8.13021 33.0521 16.9896 33.0521C25.849 33.0521 33.0521 25.8542 33.0521 16.9948C33.0521 8.13021 25.849 0.932292 16.9896 0.932292Z" fill="white"/>
  </g>
</svg>