<svg xmlns="http://www.w3.org/2000/svg" width="18" height="23" viewBox="0 0 18 23" fill="none">
  <path d="M7.95939 0.79417C6.95485 0.896734 5.96007 1.17646 5.03357 1.62401C3.29758 2.46318 2.03948 3.6753 1.16173 5.32566C-0.164643 7.84316 -0.0378576 10.8921 1.50307 13.2791C1.91269 13.9038 8.35925 22.5752 8.49579 22.6591C8.67134 22.7803 9.10046 22.7803 9.276 22.6591C9.41254 22.5659 15.9761 13.736 16.3272 13.1765C16.8539 12.3467 17.205 11.3956 17.4195 10.2954C17.5268 9.72662 17.5268 8.29071 17.4195 7.71262C17.244 6.76157 17.0392 6.17415 16.6003 5.32566C15.9469 4.05759 15.0789 3.08789 13.8305 2.2394C13.3039 1.87576 12.2116 1.35361 11.5874 1.15781C10.4463 0.803494 9.13947 0.672957 7.95939 0.79417ZM9.48081 6.31401C10.5439 6.52847 11.4704 7.40493 11.6849 8.42125C12.1043 10.37 10.3098 12.0949 8.26172 11.694C7.45224 11.5355 6.67203 10.9574 6.31117 10.2394C5.74551 9.14853 5.95032 7.91775 6.84757 7.06926C7.54977 6.39793 8.50554 6.11821 9.48081 6.31401Z" fill="#005473"/>
</svg>