<svg xmlns="http://www.w3.org/2000/svg" width="12" height="15" viewBox="0 0 12 15" fill="none">
<path d="M5.52785 0.27861C4.87273 0.345044 4.22396 0.526227 3.61971 0.816121C2.48755 1.35967 1.66705 2.1448 1.09461 3.21378C0.229581 4.84443 0.312267 6.81933 1.31722 8.36543C1.58436 8.77007 5.78863 14.3868 5.87768 14.4411C5.99217 14.5196 6.27203 14.5196 6.38652 14.4411C6.47556 14.3807 10.7562 8.66136 10.9851 8.299C11.3286 7.76149 11.5576 7.14546 11.6975 6.43281C11.7675 6.0644 11.7675 5.13433 11.6975 4.75988C11.583 4.14386 11.4495 3.76337 11.1632 3.21378C10.7371 2.39242 10.171 1.76431 9.35686 1.21472C9.01339 0.979186 8.30102 0.640977 7.89395 0.514148C7.14977 0.284649 6.29747 0.200097 5.52785 0.27861ZM6.52009 3.85396C7.21338 3.99287 7.81762 4.56058 7.95755 5.21888C8.23105 6.48112 7.06073 7.59842 5.72503 7.33873C5.19711 7.23605 4.68827 6.86161 4.45293 6.39657C4.08403 5.68996 4.2176 4.89275 4.80276 4.34316C5.26071 3.90832 5.88404 3.72713 6.52009 3.85396Z" fill="#005473"/>
</svg>