<svg xmlns="http://www.w3.org/2000/svg" width="101" height="33" viewBox="0 0 101 33" fill="none">
  <mask id="mask0_2457_6363" style="mask-type:luminance" maskUnits="userSpaceOnUse" x="0" y="0" width="101" height="33">
    <path d="M0 0H100.984V32.5234H0V0Z" fill="white"/>
  </mask>
  <g mask="url(#mask0_2457_6363)">
    <mask id="mask1_2457_6363" style="mask-type:luminance" maskUnits="userSpaceOnUse" x="0" y="0" width="101" height="33">
      <path d="M94.8542 32.5234H6.13021C2.7526 32.5234 0 29.7708 0 26.3932V6.13021C0 2.7526 2.7526 0 6.13021 0H94.8542C98.2318 0 100.984 2.7526 100.984 6.13021V26.3932C100.984 29.7708 98.2318 32.5234 94.8542 32.5234Z" fill="white"/>
    </mask>
    <g mask="url(#mask1_2457_6363)">
      <path d="M0 0H100.984V32.5234H0V0Z" fill="black"/>
    </g>
  </g>
  <mask id="mask2_2457_6363" style="mask-type:luminance" maskUnits="userSpaceOnUse" x="9" y="7" width="10" height="19">
    <path d="M9.11328 7.28125H18.5482V25.1771H9.11328V7.28125Z" fill="white"/>
  </mask>
  <g mask="url(#mask2_2457_6363)">
    <path d="M9.44396 7.59375C9.20958 7.8776 9.10281 8.20573 9.12364 8.57292V23.9401C9.10281 24.3073 9.20958 24.6328 9.44396 24.9167L9.49604 24.9661L18.1054 16.3568V16.1562L9.49604 7.54688L9.44396 7.59375Z" fill="#428ECC"/>
  </g>
  <path d="M20.9792 19.2344L18.1094 16.362V16.1615L20.9792 13.2812L21.0469 13.3203L24.4479 15.25C25.4193 15.8047 25.4193 16.7057 24.4479 17.2604L21.0469 19.1901L20.9792 19.2344Z" fill="#FCC018"/>
  <mask id="mask3_2457_6363" style="mask-type:luminance" maskUnits="userSpaceOnUse" x="9" y="15" width="13" height="11">
    <path d="M9.21484 15.9531H21.2148V25.1823H9.21484V15.9531Z" fill="white"/>
  </mask>
  <g mask="url(#mask3_2457_6363)">
    <path d="M21.0482 19.1953L18.1107 16.2578L9.44922 24.9193C9.76953 25.2578 10.2982 25.2917 10.8945 24.9609L21.0482 19.1953Z" fill="#E84839"/>
  </g>
  <path d="M21.0443 13.3226L10.8906 7.55434C10.2943 7.2158 9.77344 7.25747 9.44531 7.59601L18.1068 16.2575L21.0443 13.3226Z" fill="#6CB74E"/>
  <path d="M34.2109 11.3021H37.0026V14.2604H36.5651L36.4089 13.2917C36.1927 13.599 35.8802 13.8542 35.4714 14.0625C35.0677 14.263 34.5885 14.3646 34.0339 14.3646C33.4557 14.3646 32.9297 14.2266 32.4505 13.9479C31.9714 13.6719 31.5911 13.2917 31.3151 12.8125C31.0365 12.3333 30.8984 11.8073 30.8984 11.2292C30.8984 10.6536 31.0365 10.125 31.3151 9.64583C31.5911 9.16667 31.974 8.78906 32.4609 8.51042C32.9453 8.23438 33.4818 8.09375 34.0651 8.09375C34.5495 8.09375 34.987 8.1875 35.3776 8.375C35.7734 8.55729 36.0964 8.79688 36.3464 9.09375C36.6016 9.39323 36.7839 9.71354 36.888 10.0521H36.2422C35.8307 9.15625 35.1068 8.70833 34.0651 8.70833C33.5911 8.70833 33.1615 8.81771 32.7734 9.03125C32.3906 9.23958 32.0885 9.53906 31.8672 9.92708C31.651 10.3099 31.5443 10.7448 31.5443 11.2292C31.5443 11.724 31.651 12.1615 31.8672 12.5417C32.0885 12.9245 32.3906 13.224 32.7734 13.4375C33.1615 13.6536 33.5911 13.7604 34.0651 13.7604C34.4948 13.7604 34.8802 13.6849 35.2214 13.5312C35.5599 13.3802 35.8281 13.1615 36.0234 12.875C36.224 12.5911 36.3359 12.2604 36.3568 11.8854H34.2109V11.3021Z" fill="white"/>
  <path d="M42.5169 11.9714C42.5169 12.125 42.5013 12.2682 42.4753 12.3984H38.5898C38.6523 12.8307 38.8346 13.1693 39.1419 13.4193C39.4544 13.6693 39.8346 13.7943 40.2878 13.7943C40.9388 13.7943 41.4154 13.5755 41.7148 13.138H42.3398C42.1862 13.5 41.9258 13.7943 41.5586 14.0234C41.1966 14.2526 40.7669 14.3672 40.2669 14.3672C39.8503 14.3672 39.4648 14.2734 39.1107 14.0859C38.7565 13.8932 38.4753 13.625 38.2669 13.2839C38.0638 12.9375 37.9648 12.5417 37.9648 12.0964C37.9648 11.6667 38.0716 11.2786 38.2878 10.9297C38.5013 10.5833 38.7826 10.3151 39.1315 10.1276C39.4857 9.9349 39.8633 9.83594 40.2669 9.83594C40.668 9.83594 41.0404 9.92969 41.3815 10.1172C41.7279 10.3047 42.0013 10.5625 42.2044 10.888C42.4128 11.2161 42.5169 11.5755 42.5169 11.9714ZM40.2669 10.3984C39.9883 10.3984 39.7279 10.4583 39.4857 10.5755C39.2409 10.6953 39.0404 10.8646 38.8815 11.0859C38.7201 11.3099 38.6237 11.5599 38.5898 11.8359H41.9128C41.8919 11.5651 41.8034 11.3229 41.6523 11.1068C41.4987 10.8854 41.2982 10.7109 41.0482 10.5859C40.8034 10.4609 40.543 10.3984 40.2669 10.3984Z" fill="white"/>
  <path d="M45.4219 14.3646C44.9844 14.3646 44.6354 14.2292 44.3802 13.9583C44.1224 13.6875 43.9948 13.3099 43.9948 12.8229V10.5H43.0469V9.9375H43.526C43.901 9.9375 44.0885 9.75 44.0885 9.375V8.78125H44.599V9.9375H45.9323V10.5H44.599V12.8229C44.599 13.151 44.6719 13.3932 44.8177 13.5521C44.9635 13.7135 45.1745 13.7917 45.4531 13.7917C45.6328 13.7917 45.7917 13.7604 45.9323 13.6979V14.25C45.7917 14.3255 45.6224 14.3646 45.4219 14.3646Z" fill="white"/>
  <path d="M49.8073 14.2656H49.2031V9.94271H49.8073V14.2656ZM49.5156 9.27604C49.3828 9.27604 49.276 9.23958 49.1927 9.16146C49.1146 9.07812 49.0781 8.97917 49.0781 8.85938C49.0781 8.75 49.1146 8.65625 49.1927 8.57812C49.276 8.49479 49.3828 8.45312 49.5156 8.45312C49.6406 8.45312 49.7396 8.49479 49.8177 8.57812C49.901 8.65625 49.9427 8.75 49.9427 8.85938C49.9427 8.97917 49.901 9.07812 49.8177 9.16146C49.7396 9.23958 49.6406 9.27604 49.5156 9.27604Z" fill="white"/>
  <path d="M53.0234 14.3646C52.5859 14.3646 52.237 14.2292 51.9818 13.9583C51.724 13.6875 51.5964 13.3099 51.5964 12.8229V10.5H50.6484V9.9375H51.1276C51.5026 9.9375 51.6901 9.75 51.6901 9.375V8.78125H52.2005V9.9375H53.5339V10.5H52.2005V12.8229C52.2005 13.151 52.2734 13.3932 52.4193 13.5521C52.5651 13.7135 52.776 13.7917 53.0547 13.7917C53.2344 13.7917 53.3932 13.7604 53.5339 13.6979V14.25C53.3932 14.3255 53.224 14.3646 53.0234 14.3646Z" fill="white"/>
  <path d="M58.8034 14.3672C58.3867 14.3672 58.0013 14.2682 57.6471 14.0755C57.293 13.8828 57.0065 13.6146 56.793 13.2734C56.5846 12.9271 56.4805 12.5339 56.4805 12.0964C56.4805 11.6667 56.5846 11.2786 56.793 10.9297C57.0065 10.5833 57.293 10.3151 57.6471 10.1276C58.0013 9.9349 58.3867 9.83594 58.8034 9.83594C59.2201 9.83594 59.6055 9.9349 59.9596 10.1276C60.3138 10.3151 60.5951 10.5833 60.8034 10.9297C61.0169 11.2786 61.1263 11.6667 61.1263 12.0964C61.1263 12.5339 61.0169 12.9271 60.8034 13.2734C60.5951 13.6146 60.3138 13.8828 59.9596 14.0755C59.6055 14.2682 59.2201 14.3672 58.8034 14.3672ZM58.8034 13.7943C59.1159 13.7943 59.4023 13.7266 59.668 13.5859C59.931 13.4401 60.1393 13.2396 60.293 12.9818C60.444 12.7266 60.5221 12.4297 60.5221 12.0964C60.5221 11.7708 60.444 11.4792 60.293 11.2214C60.1393 10.9583 59.931 10.7578 59.668 10.6172C59.4023 10.4714 59.1159 10.3984 58.8034 10.3984C58.4909 10.3984 58.2018 10.4714 57.9388 10.6172C57.681 10.7578 57.4753 10.9583 57.3242 11.2214C57.1706 11.4792 57.0951 11.7708 57.0951 12.0964C57.0951 12.4297 57.1706 12.7266 57.3242 12.9818C57.4753 13.2396 57.681 13.4401 57.9388 13.5859C58.2018 13.7266 58.4909 13.7943 58.8034 13.7943Z" fill="white"/>
  <path d="M62.1445 14.263V9.9401H62.6029L62.7487 10.5234H62.8008C62.931 10.3359 63.1263 10.1771 63.3841 10.0443C63.6471 9.90625 63.9674 9.83594 64.3424 9.83594C64.7227 9.83594 65.0664 9.92448 65.3737 10.0964C65.6784 10.263 65.918 10.5026 66.0924 10.8151C66.2643 11.1276 66.3529 11.4974 66.3529 11.9193V14.263H65.7487V11.9401C65.7487 11.4557 65.6159 11.0755 65.3529 10.8047C65.0872 10.5339 64.7331 10.3984 64.2904 10.3984C63.8164 10.3984 63.4414 10.5339 63.1654 10.8047C62.8867 11.0755 62.7487 11.4557 62.7487 11.9401V14.263H62.1445Z" fill="white"/>
  <path d="M34.2422 20.5599H37.4609V23.7578H36.7109L36.5026 22.9974C36.2578 23.2474 35.9401 23.4609 35.5443 23.6328C35.1536 23.7995 34.7266 23.8828 34.263 23.8828C33.6016 23.8828 33.013 23.7448 32.4922 23.4661C31.9714 23.1901 31.5651 22.8099 31.2734 22.3307C30.9818 21.8464 30.8359 21.3099 30.8359 20.7266C30.8359 20.1432 30.9818 19.612 31.2734 19.1328C31.5651 18.6484 31.9661 18.2656 32.4818 17.987C32.9948 17.7109 33.5703 17.5703 34.2109 17.5703C34.7734 17.5703 35.276 17.6745 35.7214 17.8828C36.1641 18.0911 36.5234 18.3594 36.7943 18.6849C37.0703 19.013 37.2526 19.3464 37.3359 19.6849H35.9714C35.8516 19.4505 35.6484 19.2448 35.3568 19.0703C35.0703 18.8984 34.6901 18.8099 34.2109 18.8099C33.8203 18.8099 33.4714 18.8984 33.1589 19.0703C32.8464 19.2448 32.599 19.4766 32.4193 19.7682C32.237 20.0599 32.1484 20.3802 32.1484 20.7266C32.1484 21.0755 32.2344 21.3984 32.4089 21.6953C32.5885 21.987 32.8359 22.2214 33.1484 22.3932C33.4609 22.5677 33.8073 22.6536 34.1901 22.6536C34.7109 22.6536 35.1224 22.5547 35.4297 22.3516C35.7422 22.151 35.9505 21.9219 36.0547 21.6641H34.2422V20.5599Z" fill="white"/>
  <path d="M40.8698 23.8854C40.375 23.8854 39.9323 23.7812 39.5365 23.5729C39.1406 23.3646 38.8281 23.0833 38.599 22.7292C38.375 22.3698 38.2656 21.9766 38.2656 21.5521C38.2656 21.1302 38.375 20.7396 38.599 20.3854C38.8281 20.026 39.1406 19.7396 39.5365 19.5312C39.9323 19.3229 40.375 19.2188 40.8698 19.2188C41.362 19.2188 41.8073 19.3229 42.2031 19.5312C42.599 19.7396 42.9062 20.026 43.1302 20.3854C43.3594 20.7396 43.474 21.1302 43.474 21.5521C43.474 21.9766 43.3594 22.3698 43.1302 22.7292C42.9062 23.0833 42.599 23.3646 42.2031 23.5729C41.8073 23.7812 41.362 23.8854 40.8698 23.8854ZM40.8698 22.7604C41.2708 22.7604 41.599 22.6458 41.849 22.4167C42.099 22.1875 42.224 21.901 42.224 21.5521C42.224 21.2057 42.099 20.9219 41.849 20.6979C41.599 20.4688 41.2708 20.3542 40.8698 20.3542C40.4661 20.3542 40.1406 20.4688 39.8906 20.6979C39.6406 20.9219 39.5156 21.2057 39.5156 21.5521C39.5156 21.901 39.6406 22.1875 39.8906 22.4167C40.1406 22.6458 40.4661 22.7604 40.8698 22.7604Z" fill="white"/>
  <path d="M46.6432 23.8854C46.1484 23.8854 45.7057 23.7812 45.3099 23.5729C44.9141 23.3646 44.6016 23.0833 44.3724 22.7292C44.1484 22.3698 44.0391 21.9766 44.0391 21.5521C44.0391 21.1302 44.1484 20.7396 44.3724 20.3854C44.6016 20.026 44.9141 19.7396 45.3099 19.5312C45.7057 19.3229 46.1484 19.2188 46.6432 19.2188C47.1354 19.2188 47.5807 19.3229 47.9766 19.5312C48.3724 19.7396 48.6797 20.026 48.9036 20.3854C49.1328 20.7396 49.2474 21.1302 49.2474 21.5521C49.2474 21.9766 49.1328 22.3698 48.9036 22.7292C48.6797 23.0833 48.3724 23.3646 47.9766 23.5729C47.5807 23.7812 47.1354 23.8854 46.6432 23.8854ZM46.6432 22.7604C47.0443 22.7604 47.3724 22.6458 47.6224 22.4167C47.8724 22.1875 47.9974 21.901 47.9974 21.5521C47.9974 21.2057 47.8724 20.9219 47.6224 20.6979C47.3724 20.4688 47.0443 20.3542 46.6432 20.3542C46.2396 20.3542 45.9141 20.4688 45.6641 20.6979C45.4141 20.9219 45.2891 21.2057 45.2891 21.5521C45.2891 21.901 45.4141 22.1875 45.6641 22.4167C45.9141 22.6458 46.2396 22.7604 46.6432 22.7604Z" fill="white"/>
  <path d="M52.3151 25.4062C51.8151 25.4062 51.3932 25.3229 51.0547 25.1562C50.7135 24.9948 50.4609 24.8047 50.2943 24.5833C50.1328 24.3594 50.0391 24.1615 50.013 23.9896H51.3047C51.4714 24.2031 51.8073 24.3125 52.3151 24.3125C52.7109 24.3125 53.0156 24.224 53.2318 24.0521C53.4531 23.8854 53.5651 23.6406 53.5651 23.3125V23.0938H53.513C53.4766 23.1562 53.3932 23.2292 53.263 23.3125C53.1302 23.3906 52.9661 23.4583 52.7734 23.5208C52.5781 23.5781 52.362 23.6042 52.1276 23.6042C51.6823 23.6042 51.2786 23.5078 50.9193 23.3125C50.5651 23.1198 50.2891 22.8516 50.0964 22.5104C49.901 22.1719 49.8047 21.7995 49.8047 21.3958C49.8047 21 49.901 20.6354 50.0964 20.3021C50.2891 19.9635 50.5651 19.6979 50.9193 19.5104C51.2734 19.3177 51.6719 19.2188 52.1172 19.2188C52.7344 19.2188 53.237 19.4062 53.6276 19.7812H53.6693L53.8672 19.3438H54.8151V23.2708C54.8151 23.9375 54.5964 24.4583 54.1589 24.8333C53.7266 25.2135 53.112 25.4062 52.3151 25.4062ZM52.3151 22.5104C52.6745 22.5104 52.974 22.4062 53.2109 22.1979C53.4453 21.9896 53.5651 21.7266 53.5651 21.4062C53.5651 21.0885 53.4453 20.8229 53.2109 20.6146C52.974 20.4062 52.6745 20.3021 52.3151 20.3021C51.9453 20.3021 51.6432 20.4062 51.4089 20.6146C51.1719 20.8229 51.0547 21.0885 51.0547 21.4062C51.0547 21.7266 51.1719 21.9896 51.4089 22.1979C51.6432 22.4062 51.9453 22.5104 52.3151 22.5104Z" fill="white"/>
  <path d="M57.1797 23.7578H55.9297V17.6953H57.1797V23.7578Z" fill="white"/>
  <path d="M63.168 21.5208C63.168 21.7448 63.1471 21.9036 63.1055 22H59.3346C59.4232 22.25 59.5898 22.4479 59.8346 22.5938C60.0768 22.7344 60.3581 22.8021 60.6784 22.8021C61.1211 22.8021 61.4518 22.7031 61.668 22.5H63.0013C62.8971 22.737 62.7357 22.9635 62.5221 23.1771C62.306 23.3854 62.0378 23.5573 61.7201 23.6875C61.3997 23.8177 61.0482 23.8854 60.668 23.8854C60.168 23.8854 59.7148 23.7812 59.3138 23.5729C58.918 23.3646 58.6055 23.0833 58.3763 22.7292C58.1523 22.3698 58.043 21.9766 58.043 21.5521C58.043 21.1302 58.1523 20.7396 58.3763 20.3854C58.6055 20.026 58.918 19.7396 59.3138 19.5312C59.7096 19.3229 60.1523 19.2188 60.6471 19.2188C61.0898 19.2188 61.5039 19.3203 61.8867 19.5208C62.2747 19.724 62.5846 20 62.8138 20.3542C63.0482 20.7031 63.168 21.0911 63.168 21.5208ZM60.6471 20.3021C60.3268 20.3021 60.0482 20.375 59.8138 20.5208C59.5768 20.6667 59.4128 20.8698 59.3242 21.125H61.918C61.8268 20.875 61.6628 20.6771 61.4284 20.5312C61.1992 20.3802 60.9388 20.3021 60.6471 20.3021Z" fill="white"/>
  <path d="M69.4505 17.6953C69.8932 17.6953 70.2865 17.7865 70.6276 17.9661C70.974 18.1406 71.2422 18.388 71.4297 18.7057C71.6172 19.0182 71.7109 19.3776 71.7109 19.7786C71.7109 20.1823 71.6172 20.5391 71.4297 20.8516C71.2422 21.1641 70.974 21.4115 70.6276 21.5911C70.2865 21.7656 69.8932 21.8516 69.4505 21.8516H67.8464V23.7578H66.5234V17.6953H69.4505ZM69.3984 20.5807C69.7031 20.5807 69.9453 20.5078 70.1276 20.362C70.3073 20.2161 70.3984 20.0234 70.3984 19.7786C70.3984 19.5365 70.3073 19.3411 70.1276 19.1953C69.9453 19.0443 69.7031 18.9661 69.3984 18.9661H67.8464V20.5807H69.3984Z" fill="white"/>
  <path d="M73.8516 23.7578H72.6016V17.6953H73.8516V23.7578Z" fill="white"/>
  <path d="M77.0911 19.2188C77.8125 19.2188 78.362 19.401 78.737 19.7604C79.1172 20.1146 79.3099 20.5885 79.3099 21.1771V23.7604H78.362L78.1641 23.3229H78.1224C77.9818 23.4688 77.7812 23.6016 77.5182 23.7188C77.2604 23.8281 76.9349 23.8854 76.5391 23.8854C76.1693 23.8854 75.8464 23.8255 75.5703 23.7083C75.2995 23.5911 75.0911 23.4271 74.9453 23.2188C74.7995 23.0052 74.7266 22.7682 74.7266 22.5104C74.7266 22.2344 74.8047 21.9844 74.9661 21.7604C75.125 21.5391 75.362 21.3698 75.6745 21.25C75.9922 21.125 76.375 21.0625 76.8203 21.0625H78.0599V21.0208C78.0599 20.8125 77.9766 20.6432 77.8099 20.5104C77.6484 20.3724 77.4167 20.3021 77.112 20.3021C76.8672 20.3021 76.6771 20.3385 76.5391 20.4062C76.3984 20.4688 76.2917 20.5625 76.2161 20.6875H74.9661C75.0495 20.2292 75.2786 19.8724 75.6536 19.6146C76.0286 19.3516 76.5078 19.2188 77.0911 19.2188ZM76.7891 22.8854C77.1901 22.8854 77.5026 22.8021 77.7266 22.6354C77.9479 22.4688 78.0599 22.2708 78.0599 22.0417V21.8958H76.8099C76.5182 21.8958 76.3047 21.9427 76.1745 22.0312C76.0417 22.1224 75.9766 22.2448 75.9766 22.3958C75.9766 22.5417 76.0391 22.6615 76.1641 22.75C76.2943 22.8411 76.5026 22.8854 76.7891 22.8854Z" fill="white"/>
  <path d="M83.7682 19.3438H85.0599L82.8724 23.9375C82.6276 24.4505 82.3724 24.8151 82.1016 25.0312C81.8307 25.2526 81.5 25.3646 81.112 25.3646C80.8411 25.3646 80.625 25.3281 80.4661 25.2604V24.1042C80.6042 24.151 80.7734 24.1771 80.9766 24.1771C81.1432 24.1771 81.2943 24.1354 81.4349 24.0521C81.5807 23.974 81.6849 23.8594 81.7474 23.7083L81.8307 23.5208L79.8203 19.3438H81.1745L82.4974 22.3542L83.7682 19.3438Z" fill="white"/>
</svg>