<svg xmlns="http://www.w3.org/2000/svg" width="16" height="15" viewBox="0 0 16 15" fill="none">
<path d="M11.141 9.20523H10.4811L10.2473 8.97946C11.1632 7.91228 11.6301 6.53171 11.5499 5.12762C11.4697 3.72353 10.8486 2.40513 9.81706 1.44921C8.78553 0.4933 7.42378 -0.0257688 6.01772 0.000985136C4.61166 0.0277391 3.27064 0.598235 2.27622 1.5927C1.2818 2.58716 0.711332 3.92823 0.684579 5.33436C0.657826 6.74049 1.17687 8.10229 2.13274 9.13386C3.08861 10.1654 4.40696 10.7865 5.81099 10.8668C7.21502 10.947 8.59552 10.4801 9.66266 9.56411L9.88842 9.79796V10.4579L14.0647 14.625L15.3086 13.3811L11.141 9.20523ZM6.12946 9.20523C5.38601 9.20523 4.65925 8.98476 4.04109 8.57171C3.42293 8.15865 2.94113 7.57155 2.65663 6.88466C2.37212 6.19777 2.29768 5.44193 2.44272 4.71273C2.58776 3.98353 2.94577 3.31372 3.47147 2.788C3.99717 2.26227 4.66695 1.90425 5.39612 1.7592C6.12529 1.61416 6.88109 1.6886 7.56795 1.97312C8.25481 2.25764 8.84188 2.73946 9.25492 3.35764C9.66796 3.97583 9.88842 4.70262 9.88842 5.4461C9.88908 5.93994 9.7923 6.42906 9.60363 6.88543C9.41495 7.34181 9.13809 7.75647 8.78891 8.10567C8.43973 8.45487 8.02508 8.73174 7.56873 8.92042C7.11237 9.1091 6.62328 9.20589 6.12946 9.20523Z" fill="#005473"/>
</svg>