<svg xmlns="http://www.w3.org/2000/svg" width="34" height="34" viewBox="0 0 34 34" fill="none">
  <path d="M24.7031 12.8027C24.7031 12.8027 24.9635 18.2298 20.8229 21.5787C14.6562 26.5892 8 22.5214 8 22.5214C8 22.5214 9.61458 22.5527 11.0469 22.1673C12.4792 21.7819 13.4948 20.8652 13.4948 20.8652C13.4948 20.8652 11.9375 20.5319 11.1354 19.9485C10.3177 19.36 10.0156 18.2298 10.0156 18.2298C10.0156 18.2298 10.5469 18.2714 10.8906 18.2714C11.2344 18.2558 11.651 18.0996 11.651 18.0996C11.651 18.0996 10.5312 17.9694 9.48958 16.7975C8.67188 15.8808 8.72917 14.3496 8.72917 14.3496C8.72917 14.3496 9.21354 14.636 9.48958 14.7089C9.74479 14.7819 10.2448 14.7819 10.2448 14.7819C10.2448 14.7819 9.27083 14.1933 8.82812 12.7037C8.40104 11.1985 9.22917 9.6829 9.22917 9.6829C9.22917 9.6829 10.6615 11.4277 12.8229 12.5631C14.9844 13.6933 17.0156 13.6464 17.0156 13.6464C17.0156 13.6464 16.7188 12.7454 17.2292 11.4277C17.7448 10.0996 18.9219 9.15165 20.6979 9.01103C22.4688 8.86519 23.6042 10.2142 23.6042 10.2142C23.6042 10.2142 24.1458 10.1152 24.776 9.88603C25.4063 9.65686 26.0208 9.3704 26.0208 9.3704C26.0208 9.3704 25.8073 10.0423 25.375 10.5683C24.9479 11.0996 24.4583 11.4173 24.4583 11.4173C24.4583 11.4173 25.0208 11.3704 25.5781 11.2142C26.1354 11.0579 26.4479 10.9017 26.4479 10.9017C25.8333 11.9902 24.7031 12.8027 24.7031 12.8027Z" fill="white"/>
  <path d="M16.9896 33.9844C7.63021 33.9844 0 26.3698 0 16.9948C0 7.61458 7.63021 0 16.9896 0C26.3542 0 33.9844 7.63021 33.9844 16.9948C33.9844 26.3542 26.3698 33.9844 16.9896 33.9844ZM16.9896 0.932292C8.13021 0.932292 0.932292 8.13021 0.932292 16.9948C0.932292 25.8542 8.13021 33.0521 16.9896 33.0521C25.8542 33.0521 33.0521 25.8542 33.0521 16.9948C33.0521 8.13021 25.8542 0.932292 16.9896 0.932292Z" fill="white"/>
</svg>