<svg xmlns="http://www.w3.org/2000/svg" width="31" height="31" viewBox="0 0 31 31" fill="none">
  <path d="M15.6484 1C13.0839 1.00066 10.5645 1.67442 8.34193 2.95392C6.11939 4.23343 4.2716 6.07387 2.98323 8.29129C1.69486 10.5087 1.01105 13.0255 1.00013 15.59C0.989219 18.1545 1.65159 20.677 2.92104 22.9053L1.60203 27.522C1.51593 27.8234 1.512 28.1424 1.59064 28.4458C1.66928 28.7493 1.82764 29.0262 2.0493 29.2478C2.27097 29.4695 2.54787 29.6278 2.85132 29.7064C3.15477 29.7851 3.47372 29.7811 3.77513 29.695L8.39182 28.376C10.3409 29.4873 12.5193 30.136 14.7588 30.2721C16.9983 30.4082 19.2391 30.0281 21.3085 29.1611C23.3778 28.294 25.2204 26.9633 26.694 25.2714C28.1676 23.5796 29.233 21.5719 29.8078 19.4031C30.3827 17.2344 30.4518 14.9625 30.0097 12.7629C29.5676 10.5632 28.6261 8.49449 27.2579 6.71627C25.8898 4.93804 24.1314 3.49785 22.1186 2.50675C20.1057 1.51566 17.8921 1.00015 15.6484 1ZM15.6484 29.1252C13.2281 29.1269 10.852 28.4757 8.77061 27.2403C8.702 27.1995 8.62575 27.1731 8.54656 27.1628C8.46736 27.1525 8.38691 27.1586 8.31013 27.1806L3.45312 28.5683C3.35264 28.597 3.24632 28.5983 3.14517 28.5721C3.04402 28.5459 2.95173 28.4931 2.87785 28.4192C2.80397 28.3453 2.7512 28.253 2.725 28.1518C2.6988 28.0507 2.70013 27.9444 2.72885 27.8439L4.11644 22.987C4.13837 22.9102 4.14438 22.8297 4.13409 22.7506C4.12381 22.6714 4.09746 22.5951 4.05665 22.5265C2.53872 19.9691 1.90921 16.9816 2.26617 14.0291C2.62313 11.0767 3.94653 8.32526 6.03021 6.20337C8.11389 4.08148 10.8408 2.70831 13.7863 2.29777C16.7317 1.88723 19.7302 2.46238 22.3147 3.93362C24.8992 5.40485 26.9245 7.68956 28.0752 10.4318C29.2259 13.1741 29.4373 16.22 28.6765 19.0949C27.9157 21.9699 26.2255 24.5125 23.8691 26.3267C21.5126 28.1409 18.6223 29.1249 15.6484 29.1252ZM23.0476 18.3648L20.0506 16.6522C19.7794 16.4974 19.4719 16.4176 19.1598 16.4209C18.8476 16.4243 18.5419 16.5106 18.2741 16.6711L16.2516 17.8846C15.0273 17.2643 14.0327 16.2696 13.4124 15.0453L14.6258 13.0228C14.7863 12.755 14.8726 12.4494 14.876 12.1372C14.8793 11.825 14.7995 11.5175 14.6447 11.2464L12.9322 8.2493C12.7924 8.00531 12.5907 7.80251 12.3474 7.66136C12.1042 7.52021 11.828 7.4457 11.5468 7.44536C10.3067 7.44566 9.11725 7.93723 8.23874 8.81248C7.36023 9.68772 6.86424 10.8754 6.85931 12.1154C6.85703 13.7328 7.17362 15.3347 7.79096 16.8296C8.4083 18.3245 9.31428 19.683 10.4571 20.8274C11.5999 21.9719 12.9571 22.8798 14.4511 23.4993C15.9451 24.1188 17.5465 24.4376 19.1638 24.4377H19.1814C20.4215 24.4327 21.6091 23.9367 22.4844 23.0582C23.3596 22.1797 23.8512 20.9902 23.8515 19.7501C23.8512 19.4689 23.7767 19.1928 23.6355 18.9495C23.4944 18.7063 23.2916 18.5046 23.0476 18.3648ZM19.1798 23.2658H19.1639C17.7006 23.2658 16.2517 22.9773 14.9 22.4168C13.5482 21.8564 12.3203 21.0349 11.2863 19.9995C10.2523 18.964 9.43262 17.7349 8.87408 16.3824C8.31554 15.0298 8.02911 13.5805 8.03118 12.1172C8.03523 11.1874 8.40742 10.2972 9.0663 9.64126C9.72519 8.98532 10.6171 8.61712 11.5468 8.61724C11.6215 8.61734 11.6948 8.63712 11.7594 8.67459C11.824 8.71206 11.8776 8.76589 11.9147 8.83067L13.6273 11.8279C13.6788 11.9183 13.7054 12.0208 13.7043 12.1248C13.7032 12.2289 13.6744 12.3307 13.621 12.42L12.2456 14.7123C12.197 14.7933 12.1687 14.8849 12.1631 14.9792C12.1575 15.0735 12.1749 15.1678 12.2136 15.254C12.9784 16.9561 14.3409 18.3186 16.043 19.0834C16.1292 19.1222 16.2235 19.1395 16.3178 19.1339C16.4122 19.1283 16.5038 19.1 16.5848 19.0513L18.8769 17.676C18.9662 17.6225 19.0681 17.5937 19.1721 17.5926C19.2762 17.5915 19.3787 17.618 19.4691 17.6696L22.4663 19.3824C22.531 19.4195 22.5849 19.473 22.6223 19.5376C22.6598 19.6022 22.6795 19.6755 22.6796 19.7501C22.6797 20.6798 22.3115 21.5717 21.6556 22.2306C20.9997 22.8895 20.1095 23.2617 19.1798 23.2658Z" fill="white" stroke="white"/>
</svg>